<?xml version="1.0" encoding="UTF-8" ?>
<!DOCTYPE svg PUBLIC "-//W3C//DTD SVG 1.1//EN" "http://www.w3.org/Graphics/SVG/1.1/DTD/svg11.dtd">
<svg width="1536pt" height="224pt" viewBox="0 0 1536 224" version="1.1" xmlns="http://www.w3.org/2000/svg">
<g id="#0f172aff">
<path fill="#0f172a" opacity="1.00" d=" M 0.00 0.00 L 1536.00 0.00 L 1536.00 224.00 L 0.00 224.00 L 0.00 0.00 M 103.39 64.18 C 103.39 79.79 103.39 95.39 103.39 111.00 C 114.35 110.96 125.31 111.09 136.27 110.93 C 136.25 107.98 136.25 105.02 136.27 102.07 C 129.12 101.92 121.98 102.03 114.84 102.00 C 114.83 98.65 114.83 95.30 114.83 91.95 C 121.43 91.95 128.02 91.95 134.61 91.95 C 134.61 88.97 134.61 85.98 134.61 83.00 C 128.02 83.00 121.43 83.00 114.84 83.00 C 114.84 79.88 114.84 76.75 114.82 73.63 C 122.00 73.63 129.18 73.66 136.36 73.61 C 136.36 70.47 136.36 67.34 136.37 64.21 C 125.37 64.15 114.38 64.19 103.39 64.18 M 141.67 64.24 C 146.80 71.84 151.81 79.51 156.90 87.14 C 151.40 95.15 145.78 103.08 140.15 111.00 C 144.70 110.98 149.25 111.07 153.79 110.90 C 156.95 105.86 160.68 101.15 163.31 95.78 C 166.17 101.01 169.30 106.13 172.88 110.89 C 177.44 111.18 182.02 110.94 186.58 110.95 C 180.96 103.03 175.63 94.90 170.11 86.90 C 175.09 79.33 180.03 71.73 185.11 64.23 C 180.72 64.15 176.33 64.15 171.94 64.23 C 168.94 68.91 165.65 73.47 163.58 78.67 C 161.30 73.55 158.15 68.92 155.18 64.19 C 150.67 64.17 146.17 64.15 141.67 64.24 M 191.87 70.85 C 187.39 75.72 185.98 82.60 186.31 89.04 C 186.27 96.64 189.74 104.67 196.47 108.61 C 203.70 112.86 213.31 113.02 220.52 108.65 C 225.69 105.70 228.66 100.13 229.75 94.44 C 225.83 94.33 221.91 94.36 217.99 94.39 C 217.04 97.43 215.28 100.64 211.88 101.32 C 206.34 103.40 199.96 99.37 198.84 93.68 C 197.87 88.22 197.58 81.87 201.12 77.20 C 203.83 73.69 208.93 72.99 212.92 74.41 C 215.65 75.51 216.98 78.32 217.92 80.92 C 221.84 80.96 225.76 80.99 229.68 80.87 C 228.61 74.89 225.48 68.89 219.76 66.20 C 210.85 61.72 198.51 62.96 191.87 70.85 M 234.74 64.24 C 234.74 79.80 234.75 95.36 234.73 110.93 C 245.10 111.09 255.47 110.96 265.84 111.00 C 265.83 108.00 265.83 105.00 265.84 102.00 C 259.39 102.00 252.95 102.00 246.51 102.00 C 246.52 89.40 246.50 76.80 246.52 64.20 C 242.59 64.17 238.66 64.15 234.74 64.24 M 271.26 64.18 C 271.29 74.82 271.21 85.45 271.29 96.09 C 271.38 102.39 276.02 107.98 281.80 110.15 C 288.79 112.78 297.11 112.44 303.57 108.54 C 307.79 105.90 310.91 101.16 310.82 96.08 C 310.87 85.45 310.82 74.81 310.83 64.18 C 307.02 64.18 303.20 64.18 299.39 64.18 C 299.36 74.13 299.43 84.08 299.37 94.03 C 299.60 99.50 293.15 103.39 288.30 101.38 C 284.81 100.32 282.49 96.65 282.73 93.06 C 282.73 83.43 282.74 73.81 282.74 64.18 C 278.91 64.18 275.09 64.18 271.26 64.18 M 321.51 68.62 C 316.29 73.36 315.80 82.88 321.67 87.31 C 327.15 91.77 334.70 91.26 340.84 94.25 C 343.13 95.10 343.25 98.23 342.07 100.01 C 339.39 102.91 334.77 102.59 331.33 101.49 C 328.67 100.62 327.93 97.72 327.14 95.37 C 323.49 95.37 319.84 95.35 316.19 95.39 C 316.11 101.18 319.07 107.09 324.51 109.52 C 331.88 112.74 340.87 112.78 348.07 109.07 C 355.56 105.33 357.06 93.68 350.66 88.26 C 345.70 83.55 338.46 83.62 332.41 81.28 C 330.19 80.46 328.86 78.20 329.68 75.88 C 333.14 71.12 342.13 72.41 343.22 78.59 C 346.82 78.66 350.43 78.66 354.04 78.57 C 354.29 71.99 349.32 66.24 343.12 64.59 C 335.86 62.74 327.27 63.40 321.51 68.62 M 359.73 64.25 C 359.75 79.81 359.75 95.37 359.73 110.93 C 363.66 111.03 367.58 111.01 371.51 110.98 C 371.50 95.39 371.51 79.79 371.51 64.19 C 367.58 64.17 363.65 64.15 359.73 64.25 M 375.97 64.23 C 381.14 79.85 386.73 95.32 391.90 110.94 C 397.06 111.04 402.21 111.00 407.37 110.99 C 412.57 95.40 417.80 79.82 422.98 64.23 C 418.69 64.16 414.39 64.14 410.09 64.25 C 406.57 76.63 401.88 88.75 399.92 101.52 C 397.22 88.84 392.73 76.66 389.05 64.26 C 384.69 64.13 380.33 64.16 375.97 64.23 M 427.39 64.18 C 427.38 79.79 427.39 95.39 427.39 111.00 C 438.35 110.96 449.31 111.09 460.27 110.93 C 460.25 107.98 460.25 105.02 460.27 102.07 C 453.12 101.92 445.98 102.03 438.83 102.00 C 438.83 98.65 438.83 95.30 438.83 91.95 C 445.43 91.95 452.02 91.95 458.61 91.95 C 458.61 88.96 458.61 85.98 458.61 83.00 C 452.02 83.00 445.43 83.00 438.84 83.00 C 438.83 79.88 438.84 76.75 438.82 73.63 C 446.00 73.63 453.18 73.66 460.36 73.61 C 460.36 70.47 460.36 67.34 460.37 64.20 C 449.37 64.15 438.38 64.19 427.39 64.18 M 478.14 110.96 C 482.46 111.02 486.79 111.03 491.12 110.94 C 492.06 107.63 493.13 104.36 494.00 101.03 C 499.00 100.97 504.00 101.01 509.00 101.00 C 509.93 104.32 511.04 107.59 511.97 110.92 C 516.32 111.04 520.69 111.03 525.05 110.94 C 519.82 95.34 514.28 79.85 509.09 64.23 C 503.97 64.14 498.85 64.19 493.73 64.19 C 488.54 79.78 483.34 95.37 478.14 110.96 M 529.63 64.21 C 529.63 79.79 529.64 95.38 529.63 110.97 C 536.08 111.02 542.53 111.01 548.99 111.00 C 555.45 111.02 562.05 108.12 565.92 102.84 C 570.51 96.37 571.35 87.76 569.42 80.20 C 567.74 72.75 561.57 66.60 554.08 65.07 C 546.05 63.37 537.77 64.49 529.63 64.21 M 603.20 64.24 C 598.03 79.82 592.88 95.41 587.60 110.96 C 591.89 111.02 596.19 111.00 600.49 110.99 C 601.56 107.67 602.58 104.33 603.65 101.00 C 608.56 101.01 613.48 100.98 618.39 101.02 C 619.47 104.34 620.51 107.67 621.60 110.99 C 625.95 111.00 630.31 111.01 634.66 110.97 C 629.11 95.43 623.99 79.73 618.46 64.17 C 613.37 64.20 608.28 64.13 603.20 64.24 M 631.56 64.20 C 636.92 79.79 642.28 95.39 647.65 110.98 C 652.81 111.00 657.97 111.05 663.13 110.94 C 668.21 95.32 673.45 79.76 678.72 64.21 C 674.41 64.16 670.09 64.17 665.78 64.20 C 662.01 76.63 657.96 88.98 655.13 101.66 C 653.40 88.76 648.24 76.62 644.58 64.19 C 640.24 64.17 635.89 64.18 631.56 64.20 M 690.98 64.25 C 685.90 79.86 680.68 95.42 675.42 110.97 C 679.74 111.01 684.06 111.01 688.38 110.98 C 689.43 107.74 690.25 104.42 691.41 101.21 C 696.34 100.72 701.30 101.12 706.25 101.00 C 707.34 104.25 708.16 107.60 709.41 110.80 C 713.74 111.25 718.12 110.91 722.48 110.97 C 717.03 95.40 711.73 79.78 706.34 64.19 C 701.22 64.19 696.10 64.12 690.98 64.25 M 726.74 64.24 C 726.74 79.80 726.75 95.36 726.73 110.93 C 730.65 111.03 734.58 111.01 738.51 110.98 C 738.50 95.39 738.51 79.79 738.51 64.19 C 734.58 64.17 730.66 64.15 726.74 64.24 M 745.39 64.18 C 745.38 79.79 745.39 95.39 745.39 111.00 C 755.76 110.99 766.14 111.02 776.51 110.98 C 776.50 107.99 776.50 105.00 776.51 102.02 C 769.95 101.98 763.39 102.01 756.84 102.00 C 756.83 89.39 756.84 76.79 756.83 64.18 C 753.01 64.18 749.20 64.18 745.39 64.18 M 794.73 64.20 C 789.54 79.79 784.34 95.37 779.14 110.96 C 783.46 111.02 787.79 111.03 792.12 110.94 C 793.06 107.63 794.12 104.36 795.00 101.03 C 800.00 100.97 805.00 101.01 810.00 101.00 C 810.93 104.32 812.04 107.59 812.97 110.92 C 817.32 111.04 821.69 111.03 826.05 110.94 C 820.83 95.34 815.28 79.85 810.09 64.23 C 804.97 64.14 799.84 64.18 794.73 64.20 M 830.63 64.21 C 830.63 79.79 830.64 95.38 830.63 110.97 C 838.10 111.03 845.57 111.00 853.05 111.00 C 857.26 111.10 861.67 109.75 864.64 106.66 C 868.42 103.01 869.38 96.82 866.78 92.23 C 864.93 88.67 860.99 86.82 857.11 86.65 C 860.03 85.78 863.18 84.59 864.82 81.82 C 867.55 77.59 866.69 71.55 863.02 68.15 C 859.46 65.11 854.60 64.23 850.06 64.18 C 843.58 64.17 837.11 64.17 830.63 64.21 M 873.26 64.18 C 873.26 79.79 873.26 95.39 873.26 111.00 C 883.63 110.98 894.00 111.04 904.37 110.97 C 904.36 107.99 904.36 105.01 904.37 102.03 C 897.82 101.97 891.28 102.01 884.74 102.00 C 884.73 89.39 884.74 76.79 884.74 64.18 C 880.91 64.18 877.08 64.18 873.26 64.18 M 909.39 64.18 C 909.38 79.79 909.39 95.39 909.39 111.00 C 920.35 110.96 931.31 111.09 942.27 110.93 C 942.25 107.98 942.25 105.02 942.27 102.07 C 935.12 101.92 927.98 102.03 920.83 102.00 C 920.83 98.65 920.83 95.30 920.83 91.95 C 927.42 91.95 934.02 91.95 940.61 91.95 C 940.60 88.97 940.60 85.98 940.61 83.00 C 934.02 83.00 927.43 83.00 920.84 83.00 C 920.83 79.88 920.83 76.75 920.82 73.63 C 928.00 73.63 935.18 73.66 942.36 73.61 C 942.36 70.47 942.36 67.34 942.37 64.21 C 931.37 64.15 920.38 64.19 909.39 64.18 M 1170.54 77.68 C 1162.21 79.02 1153.74 82.93 1149.31 90.45 C 1143.81 99.95 1143.46 111.58 1145.17 122.18 C 1146.62 131.34 1152.42 140.06 1161.18 143.62 C 1171.50 148.12 1183.03 146.76 1193.98 147.00 C 1262.32 147.00 1330.67 147.00 1399.02 147.00 C 1408.01 146.92 1417.81 146.04 1425.02 140.05 C 1432.88 133.94 1435.64 123.50 1435.87 113.96 C 1436.19 103.85 1434.34 92.62 1426.69 85.35 C 1419.31 78.44 1408.72 76.95 1399.01 77.01 C 1334.34 76.99 1269.67 77.01 1205.01 77.00 C 1193.52 77.23 1181.98 76.42 1170.54 77.68 M 972.92 133.96 C 971.60 136.89 966.95 137.40 967.15 141.05 C 966.59 144.29 970.13 145.22 972.32 146.44 C 972.26 148.53 972.22 150.62 972.15 152.71 C 970.99 151.56 969.90 150.37 968.87 149.13 C 967.87 149.27 966.89 149.42 965.92 149.57 C 967.03 151.25 968.11 153.16 970.14 153.87 C 971.56 154.31 972.37 155.41 972.76 156.84 L 974.32 156.68 C 974.28 156.17 974.20 155.16 974.16 154.66 C 976.39 153.84 979.69 153.01 979.73 150.05 C 980.62 146.48 976.80 144.97 974.24 143.81 C 974.24 141.93 974.27 140.05 974.31 138.18 C 976.00 139.75 977.72 141.48 980.30 140.94 C 979.06 137.71 975.46 136.92 973.56 134.31 C 973.40 134.22 973.08 134.05 972.92 133.96 M 106.70 136.34 C 104.55 142.21 102.48 148.11 100.25 153.95 C 101.03 153.96 102.57 153.98 103.35 153.99 C 103.86 152.44 104.38 150.90 104.88 149.35 C 107.19 149.36 109.50 149.37 111.82 149.40 C 112.25 150.87 112.67 152.35 113.10 153.82 C 113.91 153.87 115.53 153.96 116.34 154.00 C 114.06 148.18 111.99 142.28 109.84 136.42 C 108.79 136.39 107.75 136.37 106.70 136.34 M 176.73 136.15 C 177.25 137.33 177.31 139.12 179.03 139.11 C 179.96 138.40 180.54 137.36 181.23 136.45 C 179.73 136.29 178.23 136.19 176.73 136.15 M 195.53 136.20 C 195.54 136.80 195.57 138.00 195.59 138.59 C 196.59 138.71 197.59 138.83 198.59 138.94 C 198.67 138.21 198.84 136.77 198.92 136.04 C 197.79 136.08 196.66 136.14 195.53 136.20 M 313.18 140.15 C 312.11 140.87 311.03 141.57 309.96 142.29 C 310.85 142.52 312.61 142.97 313.50 143.19 C 313.47 146.79 313.48 150.40 313.47 154.00 C 314.20 153.99 315.65 153.98 316.38 153.98 C 316.37 150.33 316.38 146.68 316.36 143.04 C 317.12 143.00 318.65 142.91 319.42 142.87 C 319.40 142.32 319.36 141.21 319.34 140.65 C 318.55 140.65 316.99 140.64 316.21 140.64 C 316.28 140.04 316.43 138.85 316.51 138.25 C 317.81 137.91 319.12 137.55 320.43 137.18 C 318.03 133.87 312.83 136.21 313.18 140.15 M 383.54 136.20 C 383.55 136.80 383.58 138.02 383.59 138.63 C 384.61 138.71 385.64 138.80 386.67 138.88 C 386.72 138.16 386.83 136.74 386.88 136.03 C 385.76 136.07 384.65 136.13 383.54 136.20 M 464.52 136.21 C 464.54 136.82 464.58 138.02 464.60 138.63 C 465.61 138.72 466.63 138.80 467.65 138.89 C 467.71 138.17 467.83 136.74 467.90 136.03 C 466.76 136.08 465.64 136.14 464.52 136.21 M 576.84 136.62 C 577.83 137.67 578.88 138.67 579.98 139.62 C 580.55 138.48 581.14 137.34 581.68 136.17 C 580.06 136.22 578.43 136.36 576.84 136.62 M 670.53 136.20 C 670.54 136.80 670.57 138.00 670.58 138.60 C 671.58 138.71 672.59 138.82 673.61 138.93 C 673.69 138.20 673.83 136.75 673.90 136.03 C 672.77 136.08 671.65 136.14 670.53 136.20 M 730.42 140.26 C 729.74 140.75 728.38 141.74 727.70 142.23 C 728.47 142.52 730.03 143.11 730.81 143.40 C 730.71 146.89 730.74 150.38 730.72 153.86 C 731.45 153.91 732.89 154.00 733.61 154.04 C 733.61 150.36 733.61 146.67 733.61 142.98 C 734.38 142.96 735.92 142.91 736.69 142.88 C 736.66 142.34 736.60 141.25 736.57 140.71 C 735.66 140.63 733.84 140.47 732.94 140.39 C 733.66 138.29 735.71 137.69 737.58 136.93 C 734.81 133.84 730.44 136.56 730.42 140.26 M 874.77 140.65 C 874.18 140.65 873.01 140.65 872.42 140.64 C 872.40 141.21 872.35 142.33 872.33 142.89 C 873.04 142.91 874.45 142.96 875.16 142.98 C 875.16 146.65 875.16 150.33 875.16 154.00 C 875.81 154.00 877.09 154.00 877.74 154.00 C 877.73 150.33 877.73 146.65 877.74 142.98 C 878.51 142.96 880.04 142.91 880.81 142.88 C 880.78 142.34 880.72 141.26 880.69 140.73 C 879.77 140.62 877.91 140.42 876.99 140.32 C 878.03 138.50 880.03 137.78 881.65 136.60 C 878.76 133.81 874.17 136.84 874.77 140.65 M 941.17 136.36 C 941.16 142.24 941.16 148.12 941.16 154.00 C 941.81 154.00 943.10 154.00 943.74 154.00 C 943.73 148.12 943.74 142.24 943.73 136.37 C 943.09 136.37 941.81 136.36 941.17 136.36 M 983.56 136.37 C 983.19 139.45 982.70 142.51 982.41 145.60 C 984.58 145.40 986.74 144.90 988.94 144.87 C 992.13 145.86 992.18 151.07 988.94 151.95 C 986.80 152.85 985.51 150.60 984.27 149.34 C 983.64 149.40 982.39 149.52 981.76 149.58 C 982.73 152.24 984.85 154.63 987.95 154.40 C 992.41 154.79 995.82 149.41 993.49 145.59 C 992.11 142.47 988.36 141.98 985.40 142.70 C 985.51 141.73 985.74 139.79 985.86 138.82 C 988.35 138.82 990.87 138.81 993.38 138.79 C 993.38 138.19 993.36 136.99 993.36 136.39 C 990.09 136.36 986.82 136.36 983.56 136.37 M 1000.42 136.62 C 995.65 139.28 995.80 146.05 997.33 150.57 C 998.62 155.06 1005.56 155.75 1007.87 151.80 C 1009.97 148.07 1009.85 143.34 1008.27 139.44 C 1006.94 136.59 1003.26 135.24 1000.42 136.62 M 126.67 136.47 C 126.73 138.19 126.79 139.91 126.89 141.63 C 125.02 141.01 122.97 140.05 121.03 140.98 C 116.02 143.22 116.05 151.83 121.07 154.04 C 122.88 154.87 124.79 154.03 126.56 153.54 C 127.57 153.76 128.59 153.98 129.60 154.19 C 129.64 148.23 129.63 142.28 129.61 136.32 C 128.87 136.36 127.40 136.43 126.67 136.47 M 418.48 136.36 C 418.46 142.24 418.47 148.12 418.47 154.01 C 419.20 154.00 420.65 153.99 421.38 153.98 C 421.37 148.12 421.38 142.25 421.38 136.39 C 420.65 136.38 419.20 136.36 418.48 136.36 M 458.73 136.43 C 458.72 142.27 458.73 148.10 458.72 153.94 C 459.45 153.96 460.91 154.01 461.64 154.04 C 461.64 148.13 461.66 142.22 461.62 136.31 C 460.90 136.34 459.45 136.40 458.73 136.43 M 499.26 137.65 C 499.26 138.27 499.28 139.51 499.29 140.14 C 498.35 140.69 497.48 141.31 496.64 141.98 C 497.26 142.37 498.51 143.15 499.13 143.54 C 499.47 146.56 498.99 149.64 499.54 152.64 C 500.99 154.63 504.04 154.94 505.58 152.86 C 504.65 152.53 502.77 151.87 501.83 151.54 C 501.83 148.69 501.83 145.84 501.84 142.99 C 502.55 142.96 503.98 142.90 504.70 142.87 C 504.66 142.31 504.59 141.19 504.56 140.64 C 503.87 140.64 502.50 140.63 501.81 140.63 C 501.82 139.88 501.83 138.38 501.84 137.63 C 501.19 137.63 499.90 137.64 499.26 137.65 M 520.64 136.38 C 520.63 142.24 520.64 148.09 520.62 153.94 C 521.35 153.95 522.80 153.98 523.53 153.99 C 523.51 151.77 523.50 149.54 523.47 147.31 C 524.67 147.34 525.89 147.36 527.11 147.39 C 528.83 150.22 529.63 154.85 533.94 154.25 C 532.69 151.80 531.37 149.38 530.08 146.95 C 530.70 146.51 531.95 145.62 532.57 145.18 C 533.16 142.83 533.76 140.09 531.92 138.14 C 528.83 135.37 524.38 136.61 520.64 136.38 M 584.27 137.64 C 584.27 138.27 584.28 139.52 584.28 140.14 C 583.34 140.69 582.48 141.31 581.64 141.98 C 582.26 142.37 583.51 143.15 584.13 143.54 C 584.47 146.56 584.00 149.63 584.53 152.64 C 585.99 154.63 589.02 154.92 590.60 152.88 C 589.34 152.41 588.09 151.96 586.83 151.53 C 586.83 148.68 586.83 145.83 586.84 142.99 C 587.55 142.96 588.97 142.91 589.68 142.88 C 589.65 142.32 589.59 141.20 589.57 140.64 C 588.88 140.64 587.51 140.64 586.83 140.64 C 586.82 139.88 586.81 138.37 586.81 137.61 C 586.17 137.62 584.91 137.64 584.27 137.64 M 638.38 136.31 C 638.33 142.22 638.36 148.13 638.36 154.04 C 639.09 154.01 640.55 153.96 641.28 153.93 C 641.26 148.10 641.27 142.27 641.27 136.43 C 640.55 136.40 639.10 136.34 638.38 136.31 M 703.73 136.43 C 703.72 142.27 703.73 148.10 703.72 153.93 C 704.45 153.96 705.91 154.01 706.64 154.04 C 706.64 148.13 706.66 142.22 706.62 136.31 C 705.90 136.34 704.45 136.40 703.73 136.43 M 169.73 137.63 C 169.65 138.54 169.50 140.36 169.42 141.27 L 167.83 140.10 C 167.86 141.37 167.88 142.65 167.91 143.92 L 169.01 142.18 C 170.54 145.79 168.45 150.15 170.70 153.47 C 172.52 154.76 174.73 154.32 176.47 153.12 C 175.48 152.73 173.50 151.95 172.51 151.56 C 172.53 148.77 172.52 145.98 172.50 143.19 C 173.38 142.97 175.14 142.53 176.02 142.31 C 174.93 141.43 173.73 140.73 172.46 140.15 C 172.49 139.53 172.53 138.29 172.56 137.67 C 171.85 137.66 170.44 137.64 169.73 137.63 M 563.72 137.70 C 563.74 138.35 563.78 139.66 563.80 140.31 C 563.15 140.69 561.83 141.46 561.17 141.84 C 561.79 142.25 563.01 143.07 563.63 143.49 C 563.84 146.85 563.57 150.27 564.47 153.56 C 566.26 153.92 568.14 154.75 569.90 153.79 C 569.70 152.12 567.77 152.12 566.62 151.49 C 566.61 148.65 566.61 145.81 566.61 142.98 C 567.31 142.95 568.72 142.89 569.42 142.87 C 569.39 142.31 569.34 141.20 569.32 140.65 C 568.62 140.65 567.23 140.66 566.53 140.66 C 566.56 139.90 566.61 138.39 566.64 137.63 C 565.91 137.65 564.45 137.68 563.72 137.70 M 160.28 140.26 C 160.08 144.83 160.18 149.42 160.17 154.00 C 160.81 154.00 162.10 154.00 162.75 153.99 C 162.74 151.28 162.64 148.57 162.77 145.87 C 162.49 143.67 165.05 143.08 166.57 142.48 L 167.06 143.89 C 167.11 142.68 167.15 141.47 167.19 140.26 C 166.10 140.56 163.93 141.15 162.84 141.45 C 161.99 141.04 161.14 140.65 160.28 140.26 M 177.40 140.61 C 177.38 145.09 177.39 149.57 177.39 154.04 C 178.11 154.00 179.55 153.91 180.28 153.86 C 180.25 149.48 180.26 145.09 180.25 140.70 C 179.30 140.67 178.35 140.64 177.40 140.61 M 195.75 140.70 C 195.73 145.09 195.76 149.47 195.72 153.85 C 196.68 153.92 197.64 153.98 198.61 154.05 C 198.61 149.57 198.62 145.09 198.60 140.61 C 197.65 140.64 196.70 140.67 195.75 140.70 M 335.46 140.31 C 335.33 144.89 335.40 149.47 335.39 154.04 C 336.11 154.00 337.55 153.91 338.27 153.86 C 338.24 150.46 338.21 147.05 338.43 143.66 C 339.86 143.30 341.31 142.96 342.77 142.64 C 342.68 142.07 342.50 140.93 342.41 140.36 C 341.00 140.68 339.61 141.04 338.22 141.43 C 337.30 141.04 336.38 140.67 335.46 140.31 M 383.75 140.70 C 383.73 145.09 383.75 149.47 383.72 153.86 C 384.68 153.92 385.64 153.98 386.61 154.05 C 386.61 149.57 386.62 145.09 386.60 140.61 C 385.65 140.64 384.69 140.67 383.75 140.70 M 389.78 140.39 C 389.70 144.88 389.76 149.37 389.72 153.86 C 390.45 153.91 391.90 154.00 392.62 154.04 C 392.64 150.96 392.45 147.88 392.74 144.81 C 393.38 142.50 396.92 142.00 398.06 144.16 C 398.48 147.42 398.21 150.72 398.25 153.99 C 398.90 154.00 400.19 154.00 400.83 154.00 C 400.68 150.21 401.30 146.30 400.34 142.59 C 398.79 139.92 395.19 140.59 392.74 141.42 C 391.76 141.05 390.78 140.71 389.78 140.39 M 464.75 140.70 C 464.73 145.09 464.75 149.47 464.72 153.85 C 465.68 153.92 466.64 153.98 467.61 154.05 C 467.61 149.57 467.62 145.09 467.60 140.61 C 466.65 140.64 465.69 140.67 464.75 140.70 M 549.46 140.28 C 549.33 144.86 549.40 149.44 549.39 154.02 C 550.11 153.99 551.56 153.91 552.28 153.88 C 552.35 150.49 551.89 147.03 552.67 143.70 C 554.07 142.66 555.83 143.19 557.43 143.27 C 557.69 146.82 557.65 150.38 557.63 153.94 C 558.35 153.95 559.79 153.98 560.51 153.99 C 560.32 150.36 561.03 146.56 560.02 143.03 C 558.60 139.98 554.91 140.42 552.32 141.47 C 551.34 141.11 550.39 140.71 549.46 140.28 M 578.16 140.65 C 578.16 145.10 578.16 149.55 578.16 154.00 C 578.81 154.00 580.10 154.00 580.74 154.00 C 580.73 149.54 580.74 145.09 580.73 140.63 C 579.87 140.64 579.01 140.64 578.16 140.65 M 644.17 140.64 C 644.31 144.52 643.68 148.52 644.68 152.32 C 646.27 154.87 649.63 154.36 652.07 153.59 C 653.13 153.74 654.19 153.90 655.26 154.05 C 655.25 149.60 655.26 145.15 655.25 140.70 C 654.29 140.67 653.33 140.64 652.39 140.62 C 652.35 143.81 652.55 147.03 652.25 150.22 C 651.46 152.62 647.31 152.92 646.88 150.12 C 646.55 146.97 646.77 143.80 646.74 140.64 C 646.10 140.64 644.82 140.64 644.17 140.64 M 670.75 140.70 C 670.73 145.09 670.75 149.47 670.72 153.86 C 671.67 153.92 672.64 153.98 673.61 154.05 C 673.61 149.57 673.62 145.09 673.60 140.61 C 672.64 140.64 671.69 140.67 670.75 140.70 M 858.46 140.32 C 858.33 144.89 858.40 149.47 858.39 154.04 C 859.11 154.00 860.56 153.91 861.28 153.86 C 861.32 150.51 860.96 147.10 861.59 143.79 C 862.94 143.27 864.33 142.85 865.77 142.53 C 865.68 141.99 865.50 140.90 865.41 140.35 C 863.99 140.68 862.62 141.04 861.25 141.43 C 860.31 141.05 859.38 140.68 858.46 140.32 M 926.75 140.73 C 926.73 145.11 926.75 149.48 926.72 153.85 C 927.67 153.92 928.64 153.98 929.62 154.05 C 929.75 150.77 929.19 147.38 929.98 144.18 C 931.24 142.06 933.66 142.91 935.29 144.05 C 935.25 147.37 935.26 150.68 935.26 153.99 C 935.90 154.00 937.19 154.00 937.83 154.00 C 937.69 150.20 938.28 146.30 937.36 142.58 C 935.54 139.73 931.82 140.71 929.21 141.60 L 929.26 140.58 C 928.41 140.63 927.57 140.68 926.75 140.73 M 131.52 140.36 C 133.20 145.07 135.01 149.74 136.86 154.40 C 137.55 154.17 138.95 153.73 139.64 153.50 C 141.50 149.20 143.01 144.74 144.64 140.35 C 143.92 140.49 142.50 140.78 141.79 140.93 C 140.08 144.19 139.09 147.77 138.04 151.28 C 137.05 147.75 136.12 144.13 134.33 140.91 C 133.63 140.77 132.23 140.49 131.52 140.36 M 148.39 141.41 C 144.08 144.18 144.29 151.85 149.13 153.95 C 152.54 155.35 156.42 153.78 158.10 150.55 C 155.86 150.23 154.00 151.47 151.98 152.12 C 149.58 152.70 148.68 150.01 147.67 148.45 C 151.07 148.35 154.48 148.38 157.88 148.31 C 157.49 146.17 157.53 143.66 155.82 142.06 C 153.80 140.36 150.68 140.12 148.39 141.41 M 182.28 145.09 C 184.02 147.94 187.40 148.35 190.24 149.49 C 190.34 149.92 190.54 150.78 190.64 151.21 C 187.73 153.83 185.02 149.98 181.86 150.48 C 183.55 155.32 191.35 155.94 193.39 151.14 C 193.92 146.63 188.32 146.70 185.48 145.20 C 185.24 141.72 189.70 142.65 191.26 144.45 C 191.79 144.18 192.85 143.62 193.38 143.35 C 190.52 139.26 183.35 139.76 182.28 145.09 M 201.57 140.32 C 201.43 144.88 201.50 149.44 201.49 154.00 C 202.21 153.98 203.66 153.95 204.38 153.93 C 204.46 150.57 204.00 147.13 204.76 143.82 C 206.13 142.66 207.93 143.09 209.54 143.25 C 209.80 146.78 209.75 150.33 209.73 153.86 C 210.45 153.91 211.89 154.00 212.61 154.04 C 212.53 150.54 212.89 146.99 212.36 143.51 C 211.25 140.02 207.11 140.32 204.38 141.49 C 203.68 141.20 202.27 140.61 201.57 140.32 M 218.36 153.51 C 219.85 154.07 221.49 153.80 223.05 153.84 C 223.49 153.33 224.37 152.29 224.80 151.78 C 224.57 153.16 224.48 154.57 224.09 155.92 C 222.29 158.29 219.02 156.90 217.16 155.39 C 216.62 155.75 215.55 156.49 215.01 156.85 C 218.30 160.03 226.05 160.81 227.15 155.25 C 227.44 150.39 227.18 145.52 227.25 140.66 C 226.51 140.68 225.02 140.70 224.28 140.71 C 224.45 141.15 224.78 142.03 224.95 142.47 C 223.44 141.47 221.87 140.12 219.91 140.66 C 213.84 141.38 213.06 151.16 218.36 153.51 M 236.28 145.09 C 238.10 148.08 241.70 148.34 244.60 149.70 L 244.41 151.22 C 241.62 154.04 238.96 149.55 235.82 150.58 C 237.68 155.25 245.34 155.97 247.36 151.14 C 247.89 146.50 241.95 146.54 238.99 145.06 C 240.59 141.07 244.57 144.10 247.54 144.27 C 245.62 139.07 237.31 139.50 236.28 145.09 M 249.67 140.34 C 249.75 146.54 249.69 152.74 249.71 158.94 C 250.46 158.96 251.97 159.01 252.72 159.04 C 252.67 156.97 252.66 154.90 252.52 152.84 C 254.41 154.61 257.32 155.02 259.52 153.52 C 263.04 150.91 263.21 144.99 260.13 141.98 C 258.71 140.50 256.48 140.78 254.64 140.43 C 254.03 141.19 253.42 141.94 252.79 142.68 C 251.98 141.60 250.89 140.88 249.67 140.34 M 264.05 143.39 C 264.65 143.69 265.85 144.30 266.45 144.60 C 267.84 143.63 269.30 142.48 271.12 142.77 C 271.88 143.60 272.52 144.51 273.06 145.51 C 270.71 146.08 268.24 146.18 266.01 147.15 C 263.66 148.02 263.77 151.27 264.93 153.06 C 267.93 155.54 271.92 153.52 275.39 153.80 C 275.31 150.51 275.56 147.19 275.18 143.91 C 273.69 139.01 266.74 140.12 264.05 143.39 M 282.08 154.16 C 285.43 155.28 288.60 153.17 290.40 150.45 C 287.31 148.86 285.18 153.58 282.33 151.71 C 279.65 149.85 280.49 146.19 281.48 143.60 C 282.15 143.35 283.49 142.85 284.17 142.60 C 286.02 143.86 287.90 145.31 290.31 144.59 C 288.63 141.78 285.42 139.74 282.09 140.84 C 276.19 142.49 276.16 152.51 282.08 154.16 M 293.24 142.23 C 290.90 144.44 290.81 148.18 291.91 151.00 C 293.82 155.26 300.33 155.54 303.04 151.95 C 302.83 150.89 301.78 150.47 301.05 149.84 C 300.54 150.49 299.52 151.78 299.01 152.43 C 296.29 152.45 294.43 150.85 293.44 148.43 C 296.89 148.34 300.34 148.38 303.79 148.30 C 303.35 146.04 303.30 143.29 301.26 141.80 C 298.95 140.13 295.27 140.09 293.24 142.23 M 323.32 141.35 C 318.22 144.36 319.55 154.27 326.03 154.39 C 330.70 155.13 333.72 150.08 332.67 145.94 C 332.42 141.49 326.99 139.24 323.32 141.35 M 350.10 144.29 C 352.57 144.60 354.65 142.95 357.04 142.88 C 358.30 143.09 358.50 144.64 359.23 145.49 C 356.35 146.30 352.75 145.99 350.59 148.39 C 349.93 150.25 350.09 153.00 352.23 153.81 C 354.19 154.92 356.44 154.13 358.46 153.69 C 359.48 153.84 360.49 153.99 361.51 154.14 C 361.44 150.59 361.80 147.01 361.26 143.49 C 359.24 138.94 351.93 140.00 350.10 144.29 M 371.43 143.18 C 369.84 148.10 376.19 148.34 379.22 149.70 C 378.44 152.88 374.56 152.83 372.96 150.31 C 372.36 150.41 371.15 150.62 370.54 150.72 C 372.03 156.58 383.30 155.19 381.45 148.70 C 379.22 146.16 375.15 146.70 373.01 143.96 C 375.86 142.04 378.90 143.80 381.87 144.30 C 380.37 140.00 373.56 139.15 371.43 143.18 M 407.26 153.72 C 409.33 154.51 411.34 153.52 413.07 152.44 C 412.79 153.86 412.53 155.27 412.27 156.69 C 409.12 157.74 406.32 155.62 403.21 155.77 C 405.38 160.24 413.19 160.81 415.34 156.14 C 415.73 150.88 415.47 145.59 415.43 140.32 C 414.73 140.61 413.32 141.20 412.61 141.49 C 411.11 141.13 409.61 140.40 408.04 140.69 C 401.95 141.64 401.46 151.93 407.26 153.72 M 426.57 141.58 C 422.21 144.77 423.11 153.53 429.01 154.31 C 431.98 155.00 434.77 153.42 436.27 150.91 C 435.58 150.73 434.20 150.37 433.51 150.19 C 433.09 150.73 432.24 151.81 431.81 152.35 C 429.01 152.54 427.20 150.83 426.05 148.49 C 429.54 148.33 433.05 148.38 436.55 148.28 C 435.88 146.15 436.01 143.45 434.11 141.94 C 432.01 140.25 428.83 140.17 426.57 141.58 M 449.00 154.14 C 452.37 155.31 455.59 153.20 457.39 150.46 C 454.31 148.85 452.15 153.60 449.31 151.69 C 446.65 149.82 447.50 146.18 448.47 143.60 C 449.15 143.35 450.50 142.85 451.18 142.60 C 453.03 143.86 454.90 145.31 457.31 144.59 C 455.64 141.77 452.41 139.73 449.07 140.84 C 443.21 142.51 443.17 152.42 449.00 154.14 M 472.51 141.62 C 468.23 144.84 469.13 153.50 474.97 154.31 C 477.97 155.02 480.78 153.42 482.28 150.88 C 481.68 150.74 480.49 150.47 479.90 150.33 C 478.24 152.01 476.09 152.43 473.89 151.74 C 473.35 150.62 472.83 149.51 472.30 148.39 C 475.72 148.36 479.13 148.39 482.55 148.28 C 481.88 146.12 482.00 143.39 480.05 141.88 C 477.92 140.25 474.75 140.18 472.51 141.62 M 484.57 140.32 C 484.43 144.88 484.50 149.44 484.49 154.00 C 485.21 153.98 486.66 153.95 487.38 153.93 C 487.46 150.57 486.99 147.12 487.76 143.82 C 489.13 142.64 490.93 143.09 492.55 143.27 C 492.80 146.79 492.75 150.33 492.73 153.86 C 493.45 153.91 494.89 154.00 495.61 154.04 C 495.53 150.54 495.89 146.99 495.36 143.51 C 494.25 140.01 490.11 140.32 487.38 141.49 C 486.68 141.20 485.27 140.61 484.57 140.32 M 538.22 141.15 C 533.13 143.59 533.50 152.65 539.14 154.17 C 541.74 155.00 544.28 153.82 546.44 152.44 C 546.50 152.00 546.61 151.11 546.67 150.66 C 546.19 150.58 545.24 150.42 544.77 150.34 C 543.55 151.02 542.52 152.38 541.00 152.21 C 538.80 152.31 538.03 149.87 536.87 148.51 C 540.26 148.33 543.65 148.36 547.05 148.32 C 546.81 146.71 546.76 145.06 546.26 143.51 C 544.82 140.70 540.95 139.93 538.22 141.15 M 600.52 141.62 C 596.20 144.83 597.14 153.55 603.02 154.32 C 605.99 154.99 608.78 153.43 610.26 150.89 C 609.57 150.72 608.18 150.37 607.49 150.20 C 607.07 150.73 606.24 151.81 605.83 152.34 C 603.02 152.54 601.20 150.83 600.04 148.49 C 603.54 148.33 607.04 148.38 610.55 148.28 C 609.88 146.14 610.01 143.41 608.07 141.91 C 605.95 140.24 602.76 140.17 600.52 141.62 M 610.98 140.40 C 612.42 142.73 613.96 145.01 615.57 147.23 C 614.01 149.46 612.49 151.71 610.97 153.97 C 611.77 153.97 613.36 153.96 614.15 153.96 C 615.12 152.36 616.11 150.76 617.05 149.14 C 617.99 150.76 618.97 152.36 619.95 153.97 C 620.76 153.95 622.38 153.91 623.19 153.89 C 621.62 151.73 620.07 149.54 618.55 147.35 C 620.15 145.08 621.69 142.76 623.14 140.38 C 619.89 139.89 618.71 142.85 617.06 144.91 C 615.49 142.77 614.20 139.89 610.98 140.40 M 629.00 154.32 C 632.13 155.06 634.69 152.95 636.35 150.55 C 635.55 150.42 633.96 150.15 633.17 150.02 C 632.85 150.59 632.22 151.74 631.90 152.31 C 626.78 153.28 624.76 146.23 628.37 143.37 C 631.11 141.37 633.39 145.90 636.43 144.62 C 634.84 142.09 632.16 139.94 628.98 140.68 C 622.15 141.58 622.15 153.46 629.00 154.32 M 658.26 144.92 C 658.55 148.46 663.23 148.24 665.73 149.42 C 665.67 150.05 665.54 151.31 665.48 151.94 C 663.36 152.31 661.27 152.18 659.89 150.32 C 659.32 150.41 658.18 150.58 657.61 150.67 C 658.83 155.67 667.50 155.77 668.61 150.78 C 669.10 146.41 663.25 146.59 660.48 145.17 C 660.84 144.53 661.57 143.25 661.94 142.61 C 664.27 143.18 666.58 143.89 668.97 144.28 C 667.80 143.01 666.95 141.04 665.04 140.79 C 662.26 140.00 657.71 141.33 658.26 144.92 M 675.52 140.36 C 677.20 145.07 679.01 149.73 680.85 154.39 C 681.54 154.17 682.94 153.73 683.64 153.52 C 685.49 149.21 687.01 144.75 688.63 140.34 C 687.92 140.49 686.50 140.79 685.79 140.93 C 684.05 144.19 683.07 147.80 682.05 151.34 C 681.05 147.79 680.13 144.14 678.33 140.90 C 677.63 140.77 676.22 140.49 675.52 140.36 M 690.77 142.76 C 687.54 146.57 689.39 154.30 695.03 154.39 C 697.40 154.64 701.63 153.50 700.72 150.34 C 698.96 149.93 697.82 151.37 696.62 152.34 C 694.00 152.42 692.42 150.63 691.44 148.43 C 694.88 148.34 698.33 148.38 701.79 148.30 C 701.39 146.43 701.38 144.37 700.22 142.76 C 698.00 139.91 692.93 139.79 690.77 142.76 M 708.23 140.35 C 709.83 145.00 711.56 149.61 713.44 154.16 C 713.01 154.93 712.59 155.71 712.19 156.49 C 711.23 156.93 709.32 157.82 708.36 158.26 C 710.01 158.57 712.12 159.69 713.69 158.46 C 715.03 157.42 715.48 155.68 716.14 154.19 C 717.82 149.57 719.72 145.03 721.23 140.34 C 720.57 140.49 719.24 140.78 718.58 140.92 C 716.64 144.08 715.71 147.78 714.87 151.36 C 713.70 147.86 712.73 144.26 711.11 140.94 C 710.39 140.79 708.95 140.50 708.23 140.35 M 740.37 141.43 C 735.39 144.52 736.74 154.03 743.03 154.38 C 747.26 155.12 750.65 150.98 749.85 146.95 C 750.38 142.00 744.38 138.92 740.37 141.43 M 752.54 140.33 C 752.40 144.89 752.47 149.44 752.46 154.00 C 753.19 154.00 754.66 154.00 755.39 154.00 C 755.44 150.82 755.14 147.61 755.59 144.45 C 756.38 142.86 758.50 143.18 759.92 142.56 C 759.83 142.01 759.66 140.90 759.58 140.34 C 758.19 140.66 756.82 141.00 755.46 141.36 C 754.48 141.01 753.50 140.66 752.54 140.33 M 771.22 141.16 C 765.81 143.70 766.68 153.60 772.94 154.34 C 778.16 155.54 781.92 149.41 779.96 144.90 C 779.08 141.19 774.49 139.61 771.22 141.16 M 782.57 140.32 C 782.43 144.88 782.50 149.44 782.49 154.00 C 783.21 153.98 784.66 153.95 785.38 153.93 C 785.46 150.57 784.99 147.13 785.76 143.82 C 787.13 142.64 788.93 143.07 790.56 143.28 C 790.79 146.80 790.75 150.33 790.73 153.86 C 791.45 153.91 792.89 154.00 793.61 154.04 C 793.40 150.37 794.16 146.51 793.11 142.95 C 791.69 139.88 787.95 140.51 785.38 141.49 C 784.68 141.20 783.27 140.61 782.57 140.32 M 798.26 142.21 C 795.90 144.43 795.79 148.21 796.93 151.04 C 798.93 155.38 805.44 155.43 808.21 151.86 C 807.54 151.13 806.81 150.46 806.11 149.78 C 805.59 150.44 804.54 151.77 804.01 152.43 C 801.29 152.44 799.42 150.86 798.44 148.43 C 801.88 148.34 805.33 148.38 808.79 148.30 C 808.35 146.05 808.30 143.32 806.28 141.82 C 803.98 140.13 800.30 140.09 798.26 142.21 M 816.24 140.34 C 817.86 145.12 819.65 149.84 821.58 154.51 C 820.29 156.30 818.35 157.36 816.55 158.53 C 818.77 159.02 821.96 159.62 822.97 156.87 C 825.29 151.46 827.31 145.91 829.23 140.34 C 828.57 140.49 827.25 140.78 826.59 140.93 C 824.62 144.07 823.72 147.78 822.87 151.35 C 821.70 147.86 820.73 144.27 819.11 140.94 C 818.39 140.79 816.96 140.49 816.24 140.34 M 832.51 141.62 C 828.21 144.82 829.13 153.49 834.96 154.31 C 837.95 155.02 840.74 153.43 842.26 150.91 C 841.58 150.73 840.21 150.37 839.53 150.19 C 839.11 150.71 838.28 151.74 837.86 152.25 C 836.51 152.07 835.18 151.87 833.86 151.65 C 833.32 150.56 832.81 149.48 832.29 148.39 C 835.71 148.36 839.12 148.39 842.55 148.28 C 841.87 146.12 842.00 143.38 840.04 141.88 C 837.92 140.25 834.75 140.17 832.51 141.62 M 844.05 143.37 C 844.65 143.67 845.84 144.29 846.44 144.60 C 847.82 143.64 849.29 142.48 851.11 142.77 C 851.87 143.59 852.51 144.51 853.05 145.52 C 850.73 146.07 848.30 146.17 846.10 147.11 C 843.67 147.93 843.77 151.18 844.89 153.02 C 846.94 154.94 849.84 154.37 852.29 153.71 C 853.06 153.80 854.59 153.99 855.35 154.08 C 855.31 150.69 855.57 147.28 855.18 143.90 C 853.68 139.01 846.76 140.14 844.05 143.37 M 885.20 141.16 C 879.82 143.72 880.69 153.57 886.92 154.33 C 892.14 155.55 895.92 149.43 893.96 144.91 C 893.09 141.18 888.48 139.61 885.20 141.16 M 896.54 140.33 C 896.40 144.88 896.47 149.44 896.46 154.00 C 897.19 154.00 898.66 154.00 899.39 154.00 C 899.43 150.82 899.14 147.61 899.59 144.45 C 900.39 142.86 902.50 143.18 903.92 142.56 C 903.83 142.00 903.65 140.89 903.56 140.34 C 902.15 140.66 900.79 141.01 899.42 141.37 C 898.70 141.11 897.26 140.59 896.54 140.33 M 915.20 141.16 C 909.78 143.73 910.71 153.70 917.03 154.35 C 922.21 155.47 925.90 149.38 923.96 144.91 C 923.08 141.18 918.48 139.61 915.20 141.16 M 945.52 140.36 C 947.00 145.31 949.70 149.92 950.57 155.03 C 949.35 156.66 947.42 157.51 945.94 158.85 C 947.57 159.02 949.19 158.97 950.80 158.68 C 952.32 157.47 952.89 155.52 953.62 153.79 C 955.27 149.30 957.05 144.86 958.64 140.35 C 957.93 140.49 956.51 140.78 955.80 140.93 C 954.05 144.17 953.08 147.77 952.03 151.28 C 951.03 147.75 950.12 144.12 948.33 140.90 C 947.63 140.77 946.23 140.49 945.52 140.36 M 505.71 153.25 C 507.20 153.80 508.76 154.06 510.35 153.91 C 510.33 153.20 510.28 151.77 510.25 151.05 C 508.31 150.82 506.67 151.50 505.71 153.25 M 1011.51 151.23 C 1011.52 152.00 1011.53 153.53 1011.53 154.30 C 1012.89 154.04 1014.24 153.73 1015.60 153.39 C 1015.35 152.80 1014.85 151.63 1014.61 151.05 C 1013.56 151.10 1012.53 151.17 1011.51 151.23 Z" />
<path fill="#0f172a" opacity="1.00" d=" M 842.33 73.31 C 845.47 73.47 848.77 72.97 851.81 74.05 C 855.16 75.38 855.52 80.61 852.39 82.41 C 849.32 84.04 845.67 83.14 842.35 83.41 C 842.37 80.04 842.37 76.68 842.33 73.31 Z" />
<path fill="#0f172a" opacity="1.00" d=" M 501.08 73.61 C 502.53 79.92 504.28 86.15 506.08 92.37 C 502.93 92.36 499.78 92.35 496.63 92.40 C 498.62 86.28 500.39 80.03 501.08 73.61 Z" />
<path fill="#0f172a" opacity="1.00" d=" M 541.36 73.93 C 545.82 73.97 550.82 73.45 554.60 76.33 C 558.36 79.33 558.80 84.58 558.60 89.04 C 558.53 92.80 557.61 97.06 554.38 99.40 C 550.55 101.96 545.70 101.23 541.35 101.42 C 541.38 92.26 541.35 83.09 541.36 73.93 Z" />
<path fill="#0f172a" opacity="1.00" d=" M 606.26 92.40 C 608.09 86.24 609.66 79.98 610.91 73.67 C 611.83 80.06 613.77 86.25 615.71 92.40 C 612.56 92.35 609.40 92.35 606.26 92.40 Z" />
<path fill="#0f172a" opacity="1.00" d=" M 694.13 92.39 C 695.93 86.17 697.44 79.87 698.87 73.55 C 699.50 80.02 701.65 86.21 703.56 92.40 C 700.41 92.35 697.26 92.36 694.13 92.39 Z" />
<path fill="#0f172a" opacity="1.00" d=" M 802.07 73.61 C 803.53 79.92 805.28 86.15 807.08 92.37 C 803.92 92.36 800.77 92.36 797.63 92.40 C 799.61 86.28 801.39 80.02 802.07 73.61 Z" />
<path fill="#0f172a" opacity="1.00" d=" M 842.36 90.95 C 845.94 91.17 849.77 90.28 853.16 91.77 C 855.40 92.61 855.72 95.18 856.50 97.13 C 855.59 98.57 855.05 100.53 853.33 101.22 C 849.84 102.57 846.00 101.84 842.36 101.99 C 842.36 98.31 842.36 94.63 842.36 90.95 Z" />
<path fill="#0f172a" opacity="1.00" d=" M 1353.37 98.90 C 1355.15 98.90 1356.94 98.90 1358.75 98.90 C 1358.84 103.97 1358.55 109.05 1358.87 114.11 C 1359.29 118.37 1366.42 118.62 1367.31 114.51 C 1367.84 109.31 1367.38 104.05 1367.54 98.82 C 1369.28 99.20 1371.66 98.22 1373.07 99.63 C 1372.65 105.04 1373.38 110.49 1372.65 115.87 C 1370.66 124.48 1355.58 124.47 1353.59 115.87 C 1353.06 110.24 1353.51 104.56 1353.37 98.90 Z" />
<path fill="#0f172a" opacity="1.00" d=" M 1189.75 100.68 C 1193.80 97.57 1200.14 97.60 1204.00 101.03 C 1205.72 102.53 1206.31 104.83 1207.19 106.86 C 1205.36 106.94 1203.55 106.99 1201.75 107.01 C 1200.69 104.83 1198.69 102.60 1196.01 103.18 C 1190.47 104.31 1189.98 112.18 1192.96 115.97 C 1195.71 118.80 1200.35 117.30 1201.84 113.90 C 1203.60 113.90 1205.37 113.91 1207.16 113.92 C 1206.26 115.98 1205.58 118.30 1203.79 119.78 C 1198.89 123.99 1190.07 122.84 1187.09 116.86 C 1184.56 111.71 1185.10 104.48 1189.75 100.68 Z" />
<path fill="#0f172a" opacity="1.00" d=" M 1215.42 99.46 C 1220.52 97.08 1227.62 98.77 1230.08 104.12 C 1232.47 109.29 1231.91 116.46 1227.17 120.14 C 1224.18 122.52 1219.99 122.64 1216.46 121.69 C 1207.23 118.65 1206.79 103.47 1215.42 99.46 M 1218.45 103.55 C 1213.71 105.73 1213.81 113.30 1217.27 116.61 C 1221.21 119.23 1226.40 115.70 1225.82 111.13 C 1226.78 106.94 1223.05 101.48 1218.45 103.55 Z" />
<path fill="#0f172a" opacity="1.00" d=" M 1234.70 98.89 C 1236.73 98.90 1238.77 98.90 1240.83 98.92 C 1243.99 104.32 1247.66 109.45 1250.30 115.16 C 1249.58 109.77 1249.82 104.33 1249.80 98.91 C 1251.68 98.90 1253.56 98.90 1255.46 98.90 C 1255.46 106.61 1255.46 114.32 1255.47 122.03 C 1253.43 122.00 1251.41 121.99 1249.40 121.93 C 1246.28 116.61 1242.63 111.57 1240.18 105.88 C 1240.31 111.25 1240.31 116.62 1240.30 122.00 C 1238.42 122.00 1236.55 122.00 1234.70 122.00 C 1234.70 114.30 1234.70 106.59 1234.70 98.89 Z" />
<path fill="#0f172a" opacity="1.00" d=" M 1258.37 98.90 C 1264.87 98.90 1271.37 98.90 1277.88 98.90 C 1277.86 100.30 1277.86 101.69 1277.89 103.09 C 1275.49 103.10 1273.12 103.10 1270.75 103.13 C 1270.75 109.42 1270.75 115.71 1270.75 122.00 C 1268.95 122.00 1267.14 122.00 1265.37 122.00 C 1265.36 115.70 1265.37 109.40 1265.37 103.10 C 1263.03 103.10 1260.69 103.10 1258.37 103.10 C 1258.35 101.70 1258.35 100.30 1258.37 98.90 Z" />
<path fill="#0f172a" opacity="1.00" d=" M 1284.50 98.89 C 1286.98 98.90 1289.47 98.90 1291.97 98.91 C 1294.51 106.63 1297.23 114.29 1299.85 121.98 C 1297.80 121.99 1295.77 122.00 1293.76 122.01 C 1293.20 120.33 1292.66 118.66 1292.15 116.99 C 1289.51 116.99 1286.88 117.00 1284.27 117.06 C 1283.80 118.68 1283.36 120.30 1282.94 121.93 C 1280.85 121.98 1278.78 121.99 1276.72 122.00 C 1279.39 114.32 1281.83 106.57 1284.50 98.89 M 1285.63 112.89 C 1287.33 112.89 1289.07 112.90 1290.81 112.90 C 1289.88 109.74 1289.02 106.55 1288.11 103.39 C 1287.30 106.56 1286.53 109.74 1285.63 112.89 Z" />
<path fill="#0f172a" opacity="1.00" d=" M 1304.74 100.68 C 1308.62 97.69 1314.59 97.61 1318.50 100.60 C 1320.55 102.08 1321.25 104.63 1322.20 106.85 C 1320.37 106.94 1318.55 106.99 1316.75 107.02 C 1315.69 104.83 1313.68 102.59 1310.99 103.19 C 1305.45 104.33 1304.97 112.25 1308.01 116.02 C 1310.78 118.78 1315.35 117.27 1316.84 113.90 C 1318.59 113.90 1320.37 113.91 1322.16 113.92 C 1321.26 116.00 1320.56 118.34 1318.74 119.83 C 1313.84 123.97 1305.10 122.83 1302.11 116.90 C 1299.55 111.75 1300.09 104.50 1304.74 100.68 Z" />
<path fill="#0f172a" opacity="1.00" d=" M 1324.12 98.90 C 1330.62 98.90 1337.12 98.90 1343.63 98.90 C 1343.61 100.30 1343.61 101.70 1343.63 103.10 C 1341.22 103.10 1338.84 103.10 1336.46 103.10 C 1336.47 109.40 1336.46 115.70 1336.47 122.00 C 1334.66 122.00 1332.89 122.00 1331.12 122.00 C 1331.29 115.72 1330.64 109.43 1331.16 103.16 C 1328.80 103.11 1326.45 103.09 1324.12 103.09 C 1324.10 101.69 1324.10 100.29 1324.12 98.90 Z" />
<path fill="#0f172a" opacity="1.00" d=" M 1379.91 99.97 C 1383.49 97.85 1388.37 97.81 1391.87 100.14 C 1393.73 101.31 1394.20 103.59 1395.03 105.48 C 1393.32 105.55 1391.63 105.60 1389.95 105.63 C 1388.35 102.17 1382.62 101.81 1381.95 106.12 C 1385.23 108.23 1389.45 108.06 1392.63 110.35 C 1395.30 112.21 1395.53 116.28 1393.97 118.91 C 1391.08 122.89 1385.38 122.67 1381.12 121.59 C 1377.95 120.65 1376.47 117.48 1375.84 114.50 C 1377.51 114.44 1379.19 114.41 1380.90 114.39 C 1381.83 115.54 1382.47 117.26 1384.12 117.58 C 1386.33 118.57 1390.54 117.02 1389.27 114.09 C 1385.73 111.80 1380.65 112.58 1377.85 109.08 C 1375.57 106.20 1376.90 101.77 1379.91 99.97 Z" />
<path fill="#0f172a" opacity="1.00" d=" M 969.92 140.23 C 970.62 139.46 971.43 138.77 972.21 138.06 C 972.24 140.03 972.24 142.01 972.24 143.98 C 971.19 142.90 969.06 142.08 969.92 140.23 Z" />
<path fill="#0f172a" opacity="1.00" d=" M 1001.02 139.03 C 1002.22 138.19 1003.76 138.72 1005.12 138.68 C 1006.43 141.94 1006.98 145.54 1006.19 149.02 C 1005.67 150.40 1004.68 152.25 1002.95 152.09 C 1000.44 152.08 999.37 149.16 999.35 147.05 C 999.27 144.35 999.01 141.17 1001.02 139.03 Z" />
<path fill="#0f172a" opacity="1.00" d=" M 523.51 138.71 C 526.02 138.87 530.78 138.06 530.42 142.00 C 530.66 145.77 525.94 144.95 523.52 145.16 C 523.51 143.01 523.51 140.86 523.51 138.71 Z" />
<path fill="#0f172a" opacity="1.00" d=" M 105.71 147.10 C 106.64 144.47 107.50 141.82 108.14 139.11 C 108.93 141.75 109.83 144.36 110.77 146.96 C 109.08 147.01 107.39 147.05 105.71 147.10 Z" />
<path fill="#0f172a" opacity="1.00" d=" M 122.24 143.11 C 126.89 141.33 127.99 148.09 126.02 150.96 C 124.65 153.25 120.82 152.18 120.49 149.64 C 120.16 147.46 119.79 144.19 122.24 143.11 Z" />
<path fill="#0f172a" opacity="1.00" d=" M 147.78 146.14 C 148.80 145.04 149.27 142.88 151.02 142.85 C 153.32 142.17 154.27 144.61 155.22 146.14 C 152.74 146.17 150.26 146.17 147.78 146.14 Z" />
<path fill="#0f172a" opacity="1.00" d=" M 218.68 143.25 C 220.35 143.19 222.79 142.28 223.73 144.24 C 225.29 146.77 224.75 151.72 221.01 151.79 C 216.72 151.36 217.33 146.10 218.68 143.25 Z" />
<path fill="#0f172a" opacity="1.00" d=" M 254.22 143.30 C 259.96 140.51 261.43 151.75 256.02 152.12 C 251.90 151.87 251.66 145.62 254.22 143.30 Z" />
<path fill="#0f172a" opacity="1.00" d=" M 294.76 143.50 C 296.16 143.28 297.58 142.64 299.02 142.99 C 299.80 143.97 300.41 145.07 301.05 146.15 C 298.74 146.17 296.43 146.19 294.12 146.20 C 294.33 145.30 294.54 144.40 294.76 143.50 Z" />
<path fill="#0f172a" opacity="1.00" d=" M 325.14 142.98 C 329.11 141.52 331.35 146.98 329.64 149.94 C 328.98 152.65 324.78 153.08 323.65 150.49 C 322.73 148.05 322.66 144.52 325.14 142.98 Z" />
<path fill="#0f172a" opacity="1.00" d=" M 405.52 146.98 C 406.45 145.48 406.83 143.10 408.92 142.79 C 414.03 142.10 414.26 152.07 409.20 151.73 C 406.58 151.74 406.34 148.80 405.52 146.98 Z" />
<path fill="#0f172a" opacity="1.00" d=" M 426.10 146.14 C 427.27 144.99 428.01 142.74 429.95 142.80 C 432.11 142.43 432.75 144.87 433.86 146.16 C 431.27 146.18 428.68 146.18 426.10 146.14 Z" />
<path fill="#0f172a" opacity="1.00" d=" M 472.10 146.15 C 473.23 144.92 473.98 142.97 475.85 142.73 C 478.05 142.50 478.76 144.75 479.86 146.16 C 477.27 146.18 474.69 146.18 472.10 146.15 Z" />
<path fill="#0f172a" opacity="1.00" d=" M 537.03 146.15 C 538.12 144.77 538.95 142.63 541.07 142.74 C 543.01 142.82 543.66 144.91 544.78 146.14 C 542.19 146.19 539.61 146.18 537.03 146.15 Z" />
<path fill="#0f172a" opacity="1.00" d=" M 600.10 146.14 C 601.28 144.99 602.02 142.69 603.99 142.81 C 606.11 142.43 606.75 144.91 607.86 146.15 C 605.27 146.18 602.68 146.18 600.10 146.14 Z" />
<path fill="#0f172a" opacity="1.00" d=" M 692.77 143.48 C 694.15 143.22 695.53 142.80 696.96 142.91 C 697.76 143.92 698.39 145.04 699.06 146.15 C 696.73 146.17 694.42 146.19 692.11 146.20 C 692.32 145.29 692.54 144.39 692.77 143.48 Z" />
<path fill="#0f172a" opacity="1.00" d=" M 742.10 143.15 C 746.07 141.22 748.55 146.88 746.85 149.90 C 746.10 152.74 741.78 153.02 740.68 150.31 C 740.06 147.98 739.75 144.64 742.10 143.15 Z" />
<path fill="#0f172a" opacity="1.00" d=" M 771.50 143.56 C 772.12 143.35 773.37 142.91 773.99 142.70 C 774.64 142.91 775.93 143.34 776.58 143.55 C 777.31 145.82 778.24 148.59 776.75 150.76 C 775.67 152.75 772.28 152.69 771.32 150.63 C 769.74 148.50 770.78 145.80 771.50 143.56 Z" />
<path fill="#0f172a" opacity="1.00" d=" M 799.78 143.48 C 801.14 143.21 802.51 142.82 803.94 142.89 C 804.74 143.91 805.38 145.04 806.06 146.15 C 803.74 146.17 801.42 146.19 799.11 146.20 C 799.32 145.29 799.55 144.39 799.78 143.48 Z" />
<path fill="#0f172a" opacity="1.00" d=" M 832.10 146.14 C 833.23 144.93 833.98 142.91 835.89 142.75 C 838.07 142.48 838.74 144.79 839.87 146.16 C 837.27 146.18 834.68 146.19 832.10 146.14 Z" />
<path fill="#0f172a" opacity="1.00" d=" M 886.28 143.31 C 892.07 140.19 893.86 152.12 888.01 152.23 C 883.85 151.90 883.38 145.47 886.28 143.31 Z" />
<path fill="#0f172a" opacity="1.00" d=" M 915.35 144.33 C 916.26 142.30 918.70 143.13 920.42 143.22 C 921.61 145.97 922.63 150.76 919.00 152.06 C 914.79 153.19 913.27 147.08 915.35 144.33 Z" />
<path fill="#0f172a" opacity="1.00" d=" M 974.34 146.34 C 975.40 147.14 976.46 147.95 977.52 148.78 C 977.19 149.40 976.53 150.64 976.20 151.26 C 975.70 151.49 974.71 151.95 974.21 152.18 C 974.24 150.23 974.27 148.29 974.34 146.34 Z" />
<path fill="#0f172a" opacity="1.00" d=" M 266.09 151.25 C 267.11 148.30 270.26 148.22 272.82 147.67 C 272.40 149.17 272.47 151.06 270.97 151.98 C 269.33 152.57 267.67 151.53 266.09 151.25 Z" />
<path fill="#0f172a" opacity="1.00" d=" M 352.13 149.93 C 354.26 148.83 356.55 148.15 358.88 147.64 C 358.44 149.12 358.80 151.33 356.94 151.90 C 354.96 153.00 353.22 151.43 352.13 149.93 Z" />
<path fill="#0f172a" opacity="1.00" d=" M 846.08 151.24 C 847.11 148.30 850.25 148.22 852.81 147.67 C 852.39 149.18 852.47 151.08 850.95 152.00 C 849.30 152.55 847.65 151.54 846.08 151.24 Z" />
</g>
<g id="#ffffffff">
<path fill="#ffffff" opacity="1.00" d=" M 103.39 64.18 C 114.38 64.19 125.37 64.15 136.37 64.21 C 136.36 67.34 136.36 70.47 136.36 73.61 C 129.18 73.66 122.00 73.63 114.82 73.63 C 114.84 76.75 114.84 79.88 114.84 83.00 C 121.43 83.00 128.02 83.00 134.61 83.00 C 134.61 85.98 134.61 88.97 134.61 91.95 C 128.02 91.95 121.43 91.95 114.83 91.95 C 114.83 95.30 114.83 98.65 114.84 102.00 C 121.98 102.03 129.12 101.92 136.27 102.07 C 136.25 105.02 136.25 107.98 136.27 110.93 C 125.31 111.09 114.35 110.96 103.39 111.00 C 103.39 95.39 103.39 79.79 103.39 64.18 Z" />
<path fill="#ffffff" opacity="1.00" d=" M 141.67 64.24 C 146.17 64.15 150.67 64.17 155.18 64.19 C 158.15 68.92 161.30 73.55 163.58 78.67 C 165.65 73.47 168.94 68.91 171.94 64.23 C 176.33 64.15 180.72 64.15 185.11 64.23 C 180.03 71.73 175.09 79.33 170.11 86.90 C 175.63 94.90 180.96 103.03 186.58 110.95 C 182.02 110.94 177.44 111.18 172.88 110.89 C 169.30 106.13 166.17 101.01 163.31 95.78 C 160.68 101.15 156.95 105.86 153.79 110.90 C 149.25 111.07 144.70 110.98 140.15 111.00 C 145.78 103.08 151.40 95.15 156.90 87.14 C 151.81 79.51 146.80 71.84 141.67 64.24 Z" />
<path fill="#ffffff" opacity="1.00" d=" M 191.87 70.85 C 198.51 62.96 210.85 61.72 219.76 66.20 C 225.48 68.89 228.61 74.89 229.68 80.87 C 225.76 80.99 221.84 80.96 217.92 80.92 C 216.98 78.32 215.65 75.51 212.92 74.41 C 208.93 72.99 203.83 73.69 201.12 77.20 C 197.58 81.87 197.87 88.22 198.84 93.68 C 199.96 99.37 206.34 103.40 211.88 101.32 C 215.28 100.64 217.04 97.43 217.99 94.39 C 221.91 94.36 225.83 94.33 229.75 94.44 C 228.66 100.13 225.69 105.70 220.52 108.65 C 213.31 113.02 203.70 112.86 196.47 108.61 C 189.74 104.67 186.27 96.64 186.31 89.04 C 185.98 82.60 187.39 75.72 191.87 70.85 Z" />
<path fill="#ffffff" opacity="1.00" d=" M 234.74 64.24 C 238.66 64.15 242.59 64.17 246.52 64.20 C 246.50 76.80 246.52 89.40 246.51 102.00 C 252.95 102.00 259.39 102.00 265.84 102.00 C 265.83 105.00 265.83 108.00 265.84 111.00 C 255.47 110.96 245.10 111.09 234.73 110.93 C 234.75 95.36 234.74 79.80 234.74 64.24 Z" />
<path fill="#ffffff" opacity="1.00" d=" M 271.26 64.18 C 275.09 64.18 278.91 64.18 282.74 64.18 C 282.74 73.81 282.73 83.43 282.73 93.06 C 282.49 96.65 284.81 100.32 288.30 101.38 C 293.15 103.39 299.60 99.50 299.37 94.03 C 299.43 84.08 299.36 74.13 299.39 64.18 C 303.20 64.18 307.02 64.18 310.83 64.18 C 310.82 74.81 310.87 85.45 310.82 96.08 C 310.91 101.16 307.79 105.90 303.57 108.54 C 297.11 112.44 288.79 112.78 281.80 110.15 C 276.02 107.98 271.38 102.39 271.29 96.09 C 271.21 85.45 271.29 74.82 271.26 64.18 Z" />
<path fill="#ffffff" opacity="1.00" d=" M 321.51 68.62 C 327.27 63.40 335.86 62.74 343.12 64.59 C 349.32 66.24 354.29 71.99 354.04 78.57 C 350.43 78.66 346.82 78.66 343.22 78.59 C 342.13 72.41 333.14 71.12 329.68 75.88 C 328.86 78.20 330.19 80.46 332.41 81.28 C 338.46 83.62 345.70 83.55 350.66 88.26 C 357.06 93.68 355.56 105.33 348.07 109.07 C 340.87 112.78 331.88 112.74 324.51 109.52 C 319.07 107.09 316.11 101.18 316.19 95.39 C 319.84 95.35 323.49 95.37 327.14 95.37 C 327.93 97.72 328.67 100.62 331.33 101.49 C 334.77 102.59 339.39 102.91 342.07 100.01 C 343.25 98.23 343.13 95.10 340.84 94.25 C 334.70 91.26 327.15 91.77 321.67 87.31 C 315.80 82.88 316.29 73.36 321.51 68.62 Z" />
<path fill="#ffffff" opacity="1.00" d=" M 359.73 64.25 C 363.65 64.15 367.58 64.17 371.51 64.19 C 371.51 79.79 371.50 95.39 371.51 110.98 C 367.58 111.01 363.66 111.03 359.73 110.93 C 359.75 95.37 359.75 79.81 359.73 64.25 Z" />
<path fill="#ffffff" opacity="1.00" d=" M 375.97 64.23 C 380.33 64.16 384.69 64.13 389.05 64.26 C 392.73 76.66 397.22 88.84 399.92 101.52 C 401.88 88.75 406.57 76.63 410.09 64.25 C 414.39 64.14 418.69 64.16 422.98 64.23 C 417.80 79.82 412.57 95.40 407.37 110.99 C 402.21 111.00 397.06 111.04 391.90 110.94 C 386.73 95.32 381.14 79.85 375.97 64.23 Z" />
<path fill="#ffffff" opacity="1.00" d=" M 427.39 64.18 C 438.38 64.19 449.37 64.15 460.37 64.20 C 460.36 67.34 460.36 70.47 460.36 73.61 C 453.18 73.66 446.00 73.63 438.82 73.63 C 438.84 76.75 438.83 79.88 438.84 83.00 C 445.43 83.00 452.02 83.00 458.61 83.00 C 458.61 85.98 458.61 88.96 458.61 91.95 C 452.02 91.95 445.43 91.95 438.83 91.95 C 438.83 95.30 438.83 98.65 438.83 102.00 C 445.98 102.03 453.12 101.92 460.27 102.07 C 460.25 105.02 460.25 107.98 460.27 110.93 C 449.31 111.09 438.35 110.96 427.39 111.00 C 427.39 95.39 427.38 79.79 427.39 64.18 Z" />
<path fill="#ffffff" opacity="1.00" d=" M 478.14 110.96 C 483.34 95.37 488.54 79.78 493.73 64.19 C 498.85 64.19 503.97 64.14 509.09 64.23 C 514.28 79.85 519.82 95.34 525.05 110.94 C 520.69 111.03 516.32 111.04 511.97 110.92 C 511.04 107.59 509.93 104.32 509.00 101.00 C 504.00 101.01 499.00 100.97 494.00 101.03 C 493.13 104.36 492.06 107.63 491.12 110.94 C 486.79 111.03 482.46 111.02 478.14 110.96 M 501.08 73.61 C 500.39 80.03 498.62 86.28 496.63 92.40 C 499.78 92.35 502.93 92.36 506.08 92.37 C 504.28 86.15 502.53 79.92 501.08 73.61 Z" />
<path fill="#ffffff" opacity="1.00" d=" M 529.63 64.21 C 537.77 64.49 546.05 63.37 554.08 65.07 C 561.57 66.60 567.74 72.75 569.42 80.20 C 571.35 87.76 570.51 96.37 565.92 102.84 C 562.05 108.12 555.45 111.02 548.99 111.00 C 542.53 111.01 536.08 111.02 529.63 110.97 C 529.64 95.38 529.63 79.79 529.63 64.21 M 541.36 73.93 C 541.35 83.09 541.38 92.26 541.35 101.42 C 545.70 101.23 550.55 101.96 554.38 99.40 C 557.61 97.06 558.53 92.80 558.60 89.04 C 558.80 84.58 558.36 79.33 554.60 76.33 C 550.82 73.45 545.82 73.97 541.36 73.93 Z" />
<path fill="#ffffff" opacity="1.00" d=" M 603.20 64.24 C 608.28 64.13 613.37 64.20 618.46 64.17 C 623.99 79.73 629.11 95.43 634.66 110.97 C 630.31 111.01 625.95 111.00 621.60 110.99 C 620.51 107.67 619.47 104.34 618.39 101.02 C 613.48 100.98 608.56 101.01 603.65 101.00 C 602.58 104.33 601.56 107.67 600.49 110.99 C 596.19 111.00 591.89 111.02 587.60 110.96 C 592.88 95.41 598.03 79.82 603.20 64.24 M 606.26 92.40 C 609.40 92.35 612.56 92.35 615.71 92.40 C 613.77 86.25 611.83 80.06 610.91 73.67 C 609.66 79.98 608.09 86.24 606.26 92.40 Z" />
<path fill="#ffffff" opacity="1.00" d=" M 631.56 64.20 C 635.89 64.18 640.24 64.17 644.58 64.19 C 648.24 76.62 653.40 88.76 655.13 101.66 C 657.96 88.98 662.01 76.63 665.78 64.20 C 670.09 64.17 674.41 64.16 678.72 64.21 C 673.45 79.76 668.21 95.32 663.13 110.94 C 657.97 111.05 652.81 111.00 647.65 110.98 C 642.28 95.39 636.92 79.79 631.56 64.20 Z" />
<path fill="#ffffff" opacity="1.00" d=" M 690.98 64.25 C 696.10 64.12 701.22 64.19 706.34 64.19 C 711.73 79.78 717.03 95.40 722.48 110.97 C 718.12 110.91 713.74 111.25 709.41 110.80 C 708.16 107.60 707.34 104.25 706.25 101.00 C 701.30 101.12 696.34 100.72 691.41 101.21 C 690.25 104.42 689.43 107.74 688.38 110.98 C 684.06 111.01 679.74 111.01 675.42 110.97 C 680.68 95.42 685.90 79.86 690.98 64.25 M 694.13 92.39 C 697.26 92.36 700.41 92.35 703.56 92.40 C 701.65 86.21 699.50 80.02 698.87 73.55 C 697.44 79.87 695.93 86.17 694.13 92.39 Z" />
<path fill="#ffffff" opacity="1.00" d=" M 726.74 64.24 C 730.66 64.15 734.58 64.17 738.51 64.19 C 738.51 79.79 738.50 95.39 738.51 110.98 C 734.58 111.01 730.65 111.03 726.73 110.93 C 726.75 95.36 726.74 79.80 726.74 64.24 Z" />
<path fill="#ffffff" opacity="1.00" d=" M 745.39 64.18 C 749.20 64.18 753.01 64.18 756.83 64.18 C 756.84 76.79 756.83 89.39 756.84 102.00 C 763.39 102.01 769.95 101.98 776.51 102.02 C 776.50 105.00 776.50 107.99 776.51 110.98 C 766.14 111.02 755.76 110.99 745.39 111.00 C 745.39 95.39 745.38 79.79 745.39 64.18 Z" />
<path fill="#ffffff" opacity="1.00" d=" M 794.73 64.20 C 799.84 64.18 804.97 64.14 810.09 64.23 C 815.28 79.85 820.83 95.34 826.05 110.94 C 821.69 111.03 817.32 111.04 812.97 110.92 C 812.04 107.59 810.93 104.32 810.00 101.00 C 805.00 101.01 800.00 100.97 795.00 101.03 C 794.12 104.36 793.06 107.63 792.12 110.94 C 787.79 111.03 783.46 111.02 779.14 110.96 C 784.34 95.37 789.54 79.79 794.73 64.20 M 802.07 73.61 C 801.39 80.02 799.61 86.28 797.63 92.40 C 800.77 92.36 803.92 92.36 807.08 92.37 C 805.28 86.15 803.53 79.92 802.07 73.61 Z" />
<path fill="#ffffff" opacity="1.00" d=" M 830.63 64.21 C 837.11 64.17 843.58 64.17 850.06 64.18 C 854.60 64.23 859.46 65.11 863.02 68.15 C 866.69 71.55 867.55 77.59 864.82 81.82 C 863.18 84.59 860.03 85.78 857.11 86.65 C 860.99 86.82 864.93 88.67 866.78 92.23 C 869.38 96.82 868.42 103.01 864.64 106.66 C 861.67 109.75 857.26 111.10 853.05 111.00 C 845.57 111.00 838.10 111.03 830.63 110.97 C 830.64 95.38 830.63 79.79 830.63 64.21 M 842.33 73.31 C 842.37 76.68 842.37 80.04 842.35 83.41 C 845.67 83.14 849.32 84.04 852.39 82.41 C 855.52 80.61 855.16 75.38 851.81 74.05 C 848.77 72.97 845.47 73.47 842.33 73.31 M 842.36 90.95 C 842.36 94.63 842.36 98.31 842.36 101.99 C 846.00 101.84 849.84 102.57 853.33 101.22 C 855.05 100.53 855.59 98.57 856.50 97.13 C 855.72 95.18 855.40 92.61 853.16 91.77 C 849.77 90.28 845.94 91.17 842.36 90.95 Z" />
<path fill="#ffffff" opacity="1.00" d=" M 873.26 64.18 C 877.08 64.18 880.91 64.18 884.74 64.18 C 884.74 76.79 884.73 89.39 884.74 102.00 C 891.28 102.01 897.82 101.97 904.37 102.03 C 904.36 105.01 904.36 107.99 904.37 110.97 C 894.00 111.04 883.63 110.98 873.26 111.00 C 873.26 95.39 873.26 79.79 873.26 64.18 Z" />
<path fill="#ffffff" opacity="1.00" d=" M 909.39 64.18 C 920.38 64.19 931.37 64.15 942.37 64.21 C 942.36 67.34 942.36 70.47 942.36 73.61 C 935.18 73.66 928.00 73.63 920.82 73.63 C 920.83 76.75 920.83 79.88 920.84 83.00 C 927.43 83.00 934.02 83.00 940.61 83.00 C 940.60 85.98 940.60 88.97 940.61 91.95 C 934.02 91.95 927.42 91.95 920.83 91.95 C 920.83 95.30 920.83 98.65 920.83 102.00 C 927.98 102.03 935.12 101.92 942.27 102.07 C 942.25 105.02 942.25 107.98 942.27 110.93 C 931.31 111.09 920.35 110.96 909.39 111.00 C 909.39 95.39 909.38 79.79 909.39 64.18 Z" />
<path fill="#ffffff" opacity="1.00" d=" M 1170.54 77.68 C 1181.98 76.42 1193.52 77.23 1205.01 77.00 C 1269.67 77.01 1334.34 76.99 1399.01 77.01 C 1408.72 76.95 1419.31 78.44 1426.69 85.35 C 1434.34 92.62 1436.19 103.85 1435.87 113.96 C 1435.64 123.50 1432.88 133.94 1425.02 140.05 C 1417.81 146.04 1408.01 146.92 1399.02 147.00 C 1330.67 147.00 1262.32 147.00 1193.98 147.00 C 1183.03 146.76 1171.50 148.12 1161.18 143.62 C 1152.42 140.06 1146.62 131.34 1145.17 122.18 C 1143.46 111.58 1143.81 99.95 1149.31 90.45 C 1153.74 82.93 1162.21 79.02 1170.54 77.68 M 1353.37 98.90 C 1353.51 104.56 1353.06 110.24 1353.59 115.87 C 1355.58 124.47 1370.66 124.48 1372.65 115.87 C 1373.38 110.49 1372.65 105.04 1373.07 99.63 C 1371.66 98.22 1369.28 99.20 1367.54 98.82 C 1367.38 104.05 1367.84 109.31 1367.31 114.51 C 1366.42 118.62 1359.29 118.37 1358.87 114.11 C 1358.55 109.05 1358.84 103.97 1358.75 98.90 C 1356.94 98.90 1355.15 98.90 1353.37 98.90 M 1189.75 100.68 C 1185.10 104.48 1184.56 111.71 1187.09 116.86 C 1190.07 122.84 1198.89 123.99 1203.79 119.78 C 1205.58 118.30 1206.26 115.98 1207.16 113.92 C 1205.37 113.91 1203.60 113.90 1201.84 113.90 C 1200.35 117.30 1195.71 118.80 1192.96 115.97 C 1189.98 112.18 1190.47 104.31 1196.01 103.18 C 1198.69 102.60 1200.69 104.83 1201.75 107.01 C 1203.55 106.99 1205.36 106.94 1207.19 106.86 C 1206.31 104.83 1205.72 102.53 1204.00 101.03 C 1200.14 97.60 1193.80 97.57 1189.75 100.68 M 1215.42 99.46 C 1206.79 103.47 1207.23 118.65 1216.46 121.69 C 1219.99 122.64 1224.18 122.52 1227.17 120.14 C 1231.91 116.46 1232.47 109.29 1230.08 104.12 C 1227.62 98.77 1220.52 97.08 1215.42 99.46 M 1234.70 98.89 C 1234.70 106.59 1234.70 114.30 1234.70 122.00 C 1236.55 122.00 1238.42 122.00 1240.30 122.00 C 1240.31 116.62 1240.31 111.25 1240.18 105.88 C 1242.63 111.57 1246.28 116.61 1249.40 121.93 C 1251.41 121.99 1253.43 122.00 1255.47 122.03 C 1255.46 114.32 1255.46 106.61 1255.46 98.90 C 1253.56 98.90 1251.68 98.90 1249.80 98.91 C 1249.82 104.33 1249.58 109.77 1250.30 115.16 C 1247.66 109.45 1243.99 104.32 1240.83 98.92 C 1238.77 98.90 1236.73 98.90 1234.70 98.89 M 1258.37 98.90 C 1258.35 100.30 1258.35 101.70 1258.37 103.10 C 1260.69 103.10 1263.03 103.10 1265.37 103.10 C 1265.37 109.40 1265.36 115.70 1265.37 122.00 C 1267.14 122.00 1268.95 122.00 1270.75 122.00 C 1270.75 115.71 1270.75 109.42 1270.75 103.13 C 1273.12 103.10 1275.49 103.10 1277.89 103.09 C 1277.86 101.69 1277.86 100.30 1277.88 98.90 C 1271.37 98.90 1264.87 98.90 1258.37 98.90 M 1284.50 98.89 C 1281.83 106.57 1279.39 114.32 1276.72 122.00 C 1278.78 121.99 1280.85 121.98 1282.94 121.93 C 1283.36 120.30 1283.80 118.68 1284.27 117.06 C 1286.88 117.00 1289.51 116.99 1292.15 116.99 C 1292.66 118.66 1293.20 120.33 1293.76 122.01 C 1295.77 122.00 1297.80 121.99 1299.85 121.98 C 1297.23 114.29 1294.51 106.63 1291.97 98.91 C 1289.47 98.90 1286.98 98.90 1284.50 98.89 M 1304.74 100.68 C 1300.09 104.50 1299.55 111.75 1302.11 116.90 C 1305.10 122.83 1313.84 123.97 1318.74 119.83 C 1320.56 118.34 1321.26 116.00 1322.16 113.92 C 1320.37 113.91 1318.59 113.90 1316.84 113.90 C 1315.35 117.27 1310.78 118.78 1308.01 116.02 C 1304.97 112.25 1305.45 104.33 1310.99 103.19 C 1313.68 102.59 1315.69 104.83 1316.75 107.02 C 1318.55 106.99 1320.37 106.94 1322.20 106.85 C 1321.25 104.63 1320.55 102.08 1318.50 100.60 C 1314.59 97.61 1308.62 97.69 1304.74 100.68 M 1324.12 98.90 C 1324.10 100.29 1324.10 101.69 1324.12 103.09 C 1326.45 103.09 1328.80 103.11 1331.16 103.16 C 1330.64 109.43 1331.29 115.72 1331.12 122.00 C 1332.89 122.00 1334.66 122.00 1336.47 122.00 C 1336.46 115.70 1336.47 109.40 1336.46 103.10 C 1338.84 103.10 1341.22 103.10 1343.63 103.10 C 1343.61 101.70 1343.61 100.30 1343.63 98.90 C 1337.12 98.90 1330.62 98.90 1324.12 98.90 M 1379.91 99.97 C 1376.90 101.77 1375.57 106.20 1377.85 109.08 C 1380.65 112.58 1385.73 111.80 1389.27 114.09 C 1390.54 117.02 1386.33 118.57 1384.12 117.58 C 1382.47 117.26 1381.83 115.54 1380.90 114.39 C 1379.19 114.41 1377.51 114.44 1375.84 114.50 C 1376.47 117.48 1377.95 120.65 1381.12 121.59 C 1385.38 122.67 1391.08 122.89 1393.97 118.91 C 1395.53 116.28 1395.30 112.21 1392.63 110.35 C 1389.45 108.06 1385.23 108.23 1381.95 106.12 C 1382.62 101.81 1388.35 102.17 1389.95 105.63 C 1391.63 105.60 1393.32 105.55 1395.03 105.48 C 1394.20 103.59 1393.73 101.31 1391.87 100.14 C 1388.37 97.81 1383.49 97.85 1379.91 99.97 Z" />
<path fill="#ffffff" opacity="1.00" d=" M 1218.45 103.55 C 1223.05 101.48 1226.78 106.94 1225.82 111.13 C 1226.40 115.70 1221.21 119.23 1217.27 116.61 C 1213.81 113.30 1213.71 105.73 1218.45 103.55 Z" />
<path fill="#ffffff" opacity="1.00" d=" M 1285.63 112.89 C 1286.53 109.74 1287.30 106.56 1288.11 103.39 C 1289.02 106.55 1289.88 109.74 1290.81 112.90 C 1289.07 112.90 1287.33 112.89 1285.63 112.89 Z" />
</g>
<g id="#e7e8eaff">
<path fill="#e7e8ea" opacity="1.00" d=" M 972.92 133.96 C 973.08 134.05 973.40 134.22 973.56 134.31 C 975.46 136.92 979.06 137.71 980.30 140.94 C 977.72 141.48 976.00 139.75 974.31 138.18 C 974.27 140.05 974.24 141.93 974.24 143.81 C 976.80 144.97 980.62 146.48 979.73 150.05 C 979.69 153.01 976.39 153.84 974.16 154.66 C 974.20 155.16 974.28 156.17 974.32 156.68 L 972.76 156.84 C 972.37 155.41 971.56 154.31 970.14 153.87 C 968.11 153.16 967.03 151.25 965.92 149.57 C 966.89 149.42 967.87 149.27 968.87 149.13 C 969.90 150.37 970.99 151.56 972.15 152.71 C 972.22 150.62 972.26 148.53 972.32 146.44 C 970.13 145.22 966.59 144.29 967.15 141.05 C 966.95 137.40 971.60 136.89 972.92 133.96 M 969.92 140.23 C 969.06 142.08 971.19 142.90 972.24 143.98 C 972.24 142.01 972.24 140.03 972.21 138.06 C 971.43 138.77 970.62 139.46 969.92 140.23 M 974.34 146.34 C 974.27 148.29 974.24 150.23 974.21 152.18 C 974.71 151.95 975.70 151.49 976.20 151.26 C 976.53 150.64 977.19 149.40 977.52 148.78 C 976.46 147.95 975.40 147.14 974.34 146.34 Z" />
<path fill="#e7e8ea" opacity="1.00" d=" M 106.70 136.34 C 107.75 136.37 108.79 136.39 109.84 136.42 C 111.99 142.28 114.06 148.18 116.34 154.00 C 115.53 153.96 113.91 153.87 113.10 153.82 C 112.67 152.35 112.25 150.87 111.82 149.40 C 109.50 149.37 107.19 149.36 104.88 149.35 C 104.38 150.90 103.86 152.44 103.35 153.99 C 102.57 153.98 101.03 153.96 100.25 153.95 C 102.48 148.11 104.55 142.21 106.70 136.34 M 105.71 147.10 C 107.39 147.05 109.08 147.01 110.77 146.96 C 109.83 144.36 108.93 141.75 108.14 139.11 C 107.50 141.82 106.64 144.47 105.71 147.10 Z" />
<path fill="#e7e8ea" opacity="1.00" d=" M 730.42 140.26 C 730.44 136.56 734.81 133.84 737.58 136.93 C 735.71 137.69 733.66 138.29 732.94 140.39 C 733.84 140.47 735.66 140.63 736.57 140.71 C 736.60 141.25 736.66 142.34 736.69 142.88 C 735.92 142.91 734.38 142.96 733.61 142.98 C 733.61 146.67 733.61 150.36 733.61 154.04 C 732.89 154.00 731.45 153.91 730.72 153.86 C 730.74 150.38 730.71 146.89 730.81 143.40 C 730.03 143.11 728.47 142.52 727.70 142.23 C 728.38 141.74 729.74 140.75 730.42 140.26 Z" />
<path fill="#e7e8ea" opacity="1.00" d=" M 874.77 140.65 C 874.17 136.84 878.76 133.81 881.65 136.60 C 880.03 137.78 878.03 138.50 876.99 140.32 C 877.91 140.42 879.77 140.62 880.69 140.73 C 880.72 141.26 880.78 142.34 880.81 142.88 C 880.04 142.91 878.51 142.96 877.74 142.98 C 877.73 146.65 877.73 150.33 877.74 154.00 C 877.09 154.00 875.81 154.00 875.16 154.00 C 875.16 150.33 875.16 146.65 875.16 142.98 C 874.45 142.96 873.04 142.91 872.33 142.89 C 872.35 142.33 872.40 141.21 872.42 140.64 C 873.01 140.65 874.18 140.65 874.77 140.65 Z" />
<path fill="#e7e8ea" opacity="1.00" d=" M 941.17 136.36 C 941.81 136.36 943.09 136.37 943.73 136.37 C 943.74 142.24 943.73 148.12 943.74 154.00 C 943.10 154.00 941.81 154.00 941.16 154.00 C 941.16 148.12 941.16 142.24 941.17 136.36 Z" />
<path fill="#e7e8ea" opacity="1.00" d=" M 983.56 136.37 C 986.82 136.36 990.09 136.36 993.36 136.39 C 993.36 136.99 993.38 138.19 993.38 138.79 C 990.87 138.81 988.35 138.82 985.86 138.82 C 985.74 139.79 985.51 141.73 985.40 142.70 C 988.36 141.98 992.11 142.47 993.49 145.59 C 995.82 149.41 992.41 154.79 987.95 154.40 C 984.85 154.63 982.73 152.24 981.76 149.58 C 982.39 149.52 983.64 149.40 984.27 149.34 C 985.51 150.60 986.80 152.85 988.94 151.95 C 992.18 151.07 992.13 145.86 988.94 144.87 C 986.74 144.90 984.58 145.40 982.41 145.60 C 982.70 142.51 983.19 139.45 983.56 136.37 Z" />
<path fill="#e7e8ea" opacity="1.00" d=" M 499.26 137.65 C 499.90 137.64 501.19 137.63 501.84 137.63 C 501.83 138.38 501.82 139.88 501.81 140.63 C 502.50 140.63 503.87 140.64 504.56 140.64 C 504.59 141.19 504.66 142.31 504.70 142.87 C 503.98 142.90 502.55 142.96 501.84 142.99 C 501.83 145.84 501.83 148.69 501.83 151.54 C 502.77 151.87 504.65 152.53 505.58 152.86 C 504.04 154.94 500.99 154.63 499.54 152.64 C 498.99 149.64 499.47 146.56 499.13 143.54 C 498.51 143.15 497.26 142.37 496.64 141.98 C 497.48 141.31 498.35 140.69 499.29 140.14 C 499.28 139.51 499.26 138.27 499.26 137.65 Z" />
<path fill="#e7e8ea" opacity="1.00" d=" M 584.27 137.64 C 584.91 137.64 586.17 137.62 586.81 137.61 C 586.81 138.37 586.82 139.88 586.83 140.64 C 587.51 140.64 588.88 140.64 589.57 140.64 C 589.59 141.20 589.65 142.32 589.68 142.88 C 588.97 142.91 587.55 142.96 586.84 142.99 C 586.83 145.83 586.83 148.68 586.83 151.53 C 588.09 151.96 589.34 152.41 590.60 152.88 C 589.02 154.92 585.99 154.63 584.53 152.64 C 584.00 149.63 584.47 146.56 584.13 143.54 C 583.51 143.15 582.26 142.37 581.64 141.98 C 582.48 141.31 583.34 140.69 584.28 140.14 C 584.28 139.52 584.27 138.27 584.27 137.64 Z" />
<path fill="#e7e8ea" opacity="1.00" d=" M 563.72 137.70 C 564.45 137.68 565.91 137.65 566.64 137.63 C 566.61 138.39 566.56 139.90 566.53 140.66 C 567.23 140.66 568.62 140.65 569.32 140.65 C 569.34 141.20 569.39 142.31 569.42 142.87 C 568.72 142.89 567.31 142.95 566.61 142.98 C 566.61 145.81 566.61 148.65 566.62 151.49 C 567.77 152.12 569.70 152.12 569.90 153.79 C 568.14 154.75 566.26 153.92 564.47 153.56 C 563.57 150.27 563.84 146.85 563.63 143.49 C 563.01 143.07 561.79 142.25 561.17 141.84 C 561.83 141.46 563.15 140.69 563.80 140.31 C 563.78 139.66 563.74 138.35 563.72 137.70 Z" />
<path fill="#e7e8ea" opacity="1.00" d=" M 160.28 140.26 C 161.14 140.65 161.99 141.04 162.84 141.45 C 163.93 141.15 166.10 140.56 167.19 140.26 C 167.15 141.47 167.11 142.68 167.06 143.89 L 166.57 142.48 C 165.05 143.08 162.49 143.67 162.77 145.87 C 162.64 148.57 162.74 151.28 162.75 153.99 C 162.10 154.00 160.81 154.00 160.17 154.00 C 160.18 149.42 160.08 144.83 160.28 140.26 Z" />
<path fill="#e7e8ea" opacity="1.00" d=" M 177.40 140.61 C 178.35 140.64 179.30 140.67 180.25 140.70 C 180.26 145.09 180.25 149.48 180.28 153.86 C 179.55 153.91 178.11 154.00 177.39 154.04 C 177.39 149.57 177.38 145.09 177.40 140.61 Z" />
<path fill="#e7e8ea" opacity="1.00" d=" M 195.75 140.70 C 196.70 140.67 197.65 140.64 198.60 140.61 C 198.62 145.09 198.61 149.57 198.61 154.05 C 197.64 153.98 196.68 153.92 195.72 153.85 C 195.76 149.47 195.73 145.09 195.75 140.70 Z" />
<path fill="#e7e8ea" opacity="1.00" d=" M 335.46 140.31 C 336.38 140.67 337.30 141.04 338.22 141.43 C 339.61 141.04 341.00 140.68 342.41 140.36 C 342.50 140.93 342.68 142.07 342.77 142.64 C 341.31 142.96 339.86 143.30 338.43 143.66 C 338.21 147.05 338.24 150.46 338.27 153.86 C 337.55 153.91 336.11 154.00 335.39 154.04 C 335.40 149.47 335.33 144.89 335.46 140.31 Z" />
<path fill="#e7e8ea" opacity="1.00" d=" M 383.75 140.70 C 384.69 140.67 385.65 140.64 386.60 140.61 C 386.62 145.09 386.61 149.57 386.61 154.05 C 385.64 153.98 384.68 153.92 383.72 153.86 C 383.75 149.47 383.73 145.09 383.75 140.70 Z" />
<path fill="#e7e8ea" opacity="1.00" d=" M 389.78 140.39 C 390.78 140.71 391.76 141.05 392.74 141.42 C 395.19 140.59 398.79 139.92 400.34 142.59 C 401.30 146.30 400.68 150.21 400.83 154.00 C 400.19 154.00 398.90 154.00 398.25 153.99 C 398.21 150.72 398.48 147.42 398.06 144.16 C 396.92 142.00 393.38 142.50 392.74 144.81 C 392.45 147.88 392.64 150.96 392.62 154.04 C 391.90 154.00 390.45 153.91 389.72 153.86 C 389.76 149.37 389.70 144.88 389.78 140.39 Z" />
<path fill="#e7e8ea" opacity="1.00" d=" M 464.75 140.70 C 465.69 140.67 466.65 140.64 467.60 140.61 C 467.62 145.09 467.61 149.57 467.61 154.05 C 466.64 153.98 465.68 153.92 464.72 153.85 C 464.75 149.47 464.73 145.09 464.75 140.70 Z" />
<path fill="#e7e8ea" opacity="1.00" d=" M 549.46 140.28 C 550.39 140.71 551.34 141.11 552.32 141.47 C 554.91 140.42 558.60 139.98 560.02 143.03 C 561.03 146.56 560.32 150.36 560.51 153.99 C 559.79 153.98 558.35 153.95 557.63 153.94 C 557.65 150.38 557.69 146.82 557.43 143.27 C 555.83 143.19 554.07 142.66 552.67 143.70 C 551.89 147.03 552.35 150.49 552.28 153.88 C 551.56 153.91 550.11 153.99 549.39 154.02 C 549.40 149.44 549.33 144.86 549.46 140.28 Z" />
<path fill="#e7e8ea" opacity="1.00" d=" M 578.16 140.65 C 579.01 140.64 579.87 140.64 580.73 140.63 C 580.74 145.09 580.73 149.54 580.74 154.00 C 580.10 154.00 578.81 154.00 578.16 154.00 C 578.16 149.55 578.16 145.10 578.16 140.65 Z" />
<path fill="#e7e8ea" opacity="1.00" d=" M 644.17 140.64 C 644.82 140.64 646.10 140.64 646.74 140.64 C 646.77 143.80 646.55 146.97 646.88 150.12 C 647.31 152.92 651.46 152.62 652.25 150.22 C 652.55 147.03 652.35 143.81 652.39 140.62 C 653.33 140.64 654.29 140.67 655.25 140.70 C 655.26 145.15 655.25 149.60 655.26 154.05 C 654.19 153.90 653.13 153.74 652.07 153.59 C 649.63 154.36 646.27 154.87 644.68 152.32 C 643.68 148.52 644.31 144.52 644.17 140.64 Z" />
<path fill="#e7e8ea" opacity="1.00" d=" M 670.75 140.70 C 671.69 140.67 672.64 140.64 673.60 140.61 C 673.62 145.09 673.61 149.57 673.61 154.05 C 672.64 153.98 671.67 153.92 670.72 153.86 C 670.75 149.47 670.73 145.09 670.75 140.70 Z" />
<path fill="#e7e8ea" opacity="1.00" d=" M 858.46 140.32 C 859.38 140.68 860.31 141.05 861.25 141.43 C 862.62 141.04 863.99 140.68 865.41 140.35 C 865.50 140.90 865.68 141.99 865.77 142.53 C 864.33 142.85 862.94 143.27 861.59 143.79 C 860.96 147.10 861.32 150.51 861.28 153.86 C 860.56 153.91 859.11 154.00 858.39 154.04 C 858.40 149.47 858.33 144.89 858.46 140.32 Z" />
<path fill="#e7e8ea" opacity="1.00" d=" M 926.75 140.73 C 927.57 140.68 928.41 140.63 929.26 140.58 L 929.21 141.60 C 931.82 140.71 935.54 139.73 937.36 142.58 C 938.28 146.30 937.69 150.20 937.83 154.00 C 937.19 154.00 935.90 154.00 935.26 153.99 C 935.26 150.68 935.25 147.37 935.29 144.05 C 933.66 142.91 931.24 142.06 929.98 144.18 C 929.19 147.38 929.75 150.77 929.62 154.05 C 928.64 153.98 927.67 153.92 926.72 153.85 C 926.75 149.48 926.73 145.11 926.75 140.73 Z" />
<path fill="#e7e8ea" opacity="1.00" d=" M 131.52 140.36 C 132.23 140.49 133.63 140.77 134.33 140.91 C 136.12 144.13 137.05 147.75 138.04 151.28 C 139.09 147.77 140.08 144.19 141.79 140.93 C 142.50 140.78 143.92 140.49 144.64 140.35 C 143.01 144.74 141.50 149.20 139.64 153.50 C 138.95 153.73 137.55 154.17 136.86 154.40 C 135.01 149.74 133.20 145.07 131.52 140.36 Z" />
<path fill="#e7e8ea" opacity="1.00" d=" M 182.28 145.09 C 183.35 139.76 190.52 139.26 193.38 143.35 C 192.85 143.62 191.79 144.18 191.26 144.45 C 189.70 142.65 185.24 141.72 185.48 145.20 C 188.32 146.70 193.92 146.63 193.39 151.14 C 191.35 155.94 183.55 155.32 181.86 150.48 C 185.02 149.98 187.73 153.83 190.64 151.21 C 190.54 150.78 190.34 149.92 190.24 149.49 C 187.40 148.35 184.02 147.94 182.28 145.09 Z" />
<path fill="#e7e8ea" opacity="1.00" d=" M 201.57 140.32 C 202.27 140.61 203.68 141.20 204.38 141.49 C 207.11 140.32 211.25 140.02 212.36 143.51 C 212.89 146.99 212.53 150.54 212.61 154.04 C 211.89 154.00 210.45 153.91 209.73 153.86 C 209.75 150.33 209.80 146.78 209.54 143.25 C 207.93 143.09 206.13 142.66 204.76 143.82 C 204.00 147.13 204.46 150.57 204.38 153.93 C 203.66 153.95 202.21 153.98 201.49 154.00 C 201.50 149.44 201.43 144.88 201.57 140.32 Z" />
<path fill="#e7e8ea" opacity="1.00" d=" M 218.36 153.51 C 213.06 151.16 213.84 141.38 219.91 140.66 C 221.87 140.12 223.44 141.47 224.95 142.47 C 224.78 142.03 224.45 141.15 224.28 140.71 C 225.02 140.70 226.51 140.68 227.25 140.66 C 227.18 145.52 227.44 150.39 227.15 155.25 C 226.05 160.81 218.30 160.03 215.01 156.85 C 215.55 156.49 216.62 155.75 217.16 155.39 C 219.02 156.90 222.29 158.29 224.09 155.92 C 224.48 154.57 224.57 153.16 224.80 151.78 C 224.37 152.29 223.49 153.33 223.05 153.84 C 221.49 153.80 219.85 154.07 218.36 153.51 M 218.68 143.25 C 217.33 146.10 216.72 151.36 221.01 151.79 C 224.75 151.72 225.29 146.77 223.73 144.24 C 222.79 142.28 220.35 143.19 218.68 143.25 Z" />
<path fill="#e7e8ea" opacity="1.00" d=" M 236.28 145.09 C 237.31 139.50 245.62 139.07 247.54 144.27 C 244.57 144.10 240.59 141.07 238.99 145.06 C 241.95 146.54 247.89 146.50 247.36 151.14 C 245.34 155.97 237.68 155.25 235.82 150.58 C 238.96 149.55 241.62 154.04 244.41 151.22 L 244.60 149.70 C 241.70 148.34 238.10 148.08 236.28 145.09 Z" />
<path fill="#e7e8ea" opacity="1.00" d=" M 264.05 143.39 C 266.74 140.12 273.69 139.01 275.18 143.91 C 275.56 147.19 275.31 150.51 275.39 153.80 C 271.92 153.52 267.93 155.54 264.93 153.06 C 263.77 151.27 263.66 148.02 266.01 147.15 C 268.24 146.18 270.71 146.08 273.06 145.51 C 272.52 144.51 271.88 143.60 271.12 142.77 C 269.30 142.48 267.84 143.63 266.45 144.60 C 265.85 144.30 264.65 143.69 264.05 143.39 M 266.09 151.25 C 267.67 151.53 269.33 152.57 270.97 151.98 C 272.47 151.06 272.40 149.17 272.82 147.67 C 270.26 148.22 267.11 148.30 266.09 151.25 Z" />
<path fill="#e7e8ea" opacity="1.00" d=" M 282.08 154.16 C 276.16 152.51 276.19 142.49 282.09 140.84 C 285.42 139.74 288.63 141.78 290.31 144.59 C 287.90 145.31 286.02 143.86 284.17 142.60 C 283.49 142.85 282.15 143.35 281.48 143.60 C 280.49 146.19 279.65 149.85 282.33 151.71 C 285.18 153.58 287.31 148.86 290.40 150.45 C 288.60 153.17 285.43 155.28 282.08 154.16 Z" />
<path fill="#e7e8ea" opacity="1.00" d=" M 293.24 142.23 C 295.27 140.09 298.95 140.13 301.26 141.80 C 303.30 143.29 303.35 146.04 303.79 148.30 C 300.34 148.38 296.89 148.34 293.44 148.43 C 294.43 150.85 296.29 152.45 299.01 152.43 C 299.52 151.78 300.54 150.49 301.05 149.84 C 301.78 150.47 302.83 150.89 303.04 151.95 C 300.33 155.54 293.82 155.26 291.91 151.00 C 290.81 148.18 290.90 144.44 293.24 142.23 M 294.76 143.50 C 294.54 144.40 294.33 145.30 294.12 146.20 C 296.43 146.19 298.74 146.17 301.05 146.15 C 300.41 145.07 299.80 143.97 299.02 142.99 C 297.58 142.64 296.16 143.28 294.76 143.50 Z" />
<path fill="#e7e8ea" opacity="1.00" d=" M 323.32 141.35 C 326.99 139.24 332.42 141.49 332.67 145.94 C 333.72 150.08 330.70 155.13 326.03 154.39 C 319.55 154.27 318.22 144.36 323.32 141.35 M 325.14 142.98 C 322.66 144.52 322.73 148.05 323.65 150.49 C 324.78 153.08 328.98 152.65 329.64 149.94 C 331.35 146.98 329.11 141.52 325.14 142.98 Z" />
<path fill="#e7e8ea" opacity="1.00" d=" M 371.43 143.18 C 373.56 139.15 380.37 140.00 381.87 144.30 C 378.90 143.80 375.86 142.04 373.01 143.96 C 375.15 146.70 379.22 146.16 381.45 148.70 C 383.30 155.19 372.03 156.58 370.54 150.72 C 371.15 150.62 372.36 150.41 372.96 150.31 C 374.56 152.83 378.44 152.88 379.22 149.70 C 376.19 148.34 369.84 148.10 371.43 143.18 Z" />
<path fill="#e7e8ea" opacity="1.00" d=" M 407.26 153.72 C 401.46 151.93 401.95 141.64 408.04 140.69 C 409.61 140.40 411.11 141.13 412.61 141.49 C 413.32 141.20 414.73 140.61 415.43 140.32 C 415.47 145.59 415.73 150.88 415.34 156.14 C 413.19 160.81 405.38 160.24 403.21 155.77 C 406.32 155.62 409.12 157.74 412.27 156.69 C 412.53 155.27 412.79 153.86 413.07 152.44 C 411.34 153.52 409.33 154.51 407.26 153.72 M 405.52 146.98 C 406.34 148.80 406.58 151.74 409.20 151.73 C 414.26 152.07 414.03 142.10 408.92 142.79 C 406.83 143.10 406.45 145.48 405.52 146.98 Z" />
<path fill="#e7e8ea" opacity="1.00" d=" M 426.57 141.58 C 428.83 140.17 432.01 140.25 434.11 141.94 C 436.01 143.45 435.88 146.15 436.55 148.28 C 433.05 148.38 429.54 148.33 426.05 148.49 C 427.20 150.83 429.01 152.54 431.81 152.35 C 432.24 151.81 433.09 150.73 433.51 150.19 C 434.20 150.37 435.58 150.73 436.27 150.91 C 434.77 153.42 431.98 155.00 429.01 154.31 C 423.11 153.53 422.21 144.77 426.57 141.58 M 426.10 146.14 C 428.68 146.18 431.27 146.18 433.86 146.16 C 432.75 144.87 432.11 142.43 429.95 142.80 C 428.01 142.74 427.27 144.99 426.10 146.14 Z" />
<path fill="#e7e8ea" opacity="1.00" d=" M 449.00 154.14 C 443.17 152.42 443.21 142.51 449.07 140.84 C 452.41 139.73 455.64 141.77 457.31 144.59 C 454.90 145.31 453.03 143.86 451.18 142.60 C 450.50 142.85 449.15 143.35 448.47 143.60 C 447.50 146.18 446.65 149.82 449.31 151.69 C 452.15 153.60 454.31 148.85 457.39 150.46 C 455.59 153.20 452.37 155.31 449.00 154.14 Z" />
<path fill="#e7e8ea" opacity="1.00" d=" M 472.51 141.62 C 474.75 140.18 477.92 140.25 480.05 141.88 C 482.00 143.39 481.88 146.12 482.55 148.28 C 479.13 148.39 475.72 148.36 472.30 148.39 C 472.83 149.51 473.35 150.62 473.89 151.74 C 476.09 152.43 478.24 152.01 479.90 150.33 C 480.49 150.47 481.68 150.74 482.28 150.88 C 480.78 153.42 477.97 155.02 474.97 154.31 C 469.13 153.50 468.23 144.84 472.51 141.62 M 472.10 146.15 C 474.69 146.18 477.27 146.18 479.86 146.16 C 478.76 144.75 478.05 142.50 475.85 142.73 C 473.98 142.97 473.23 144.92 472.10 146.15 Z" />
<path fill="#e7e8ea" opacity="1.00" d=" M 484.57 140.32 C 485.27 140.61 486.68 141.20 487.38 141.49 C 490.11 140.32 494.25 140.01 495.36 143.51 C 495.89 146.99 495.53 150.54 495.61 154.04 C 494.89 154.00 493.45 153.91 492.73 153.86 C 492.75 150.33 492.80 146.79 492.55 143.27 C 490.93 143.09 489.13 142.64 487.76 143.82 C 486.99 147.12 487.46 150.57 487.38 153.93 C 486.66 153.95 485.21 153.98 484.49 154.00 C 484.50 149.44 484.43 144.88 484.57 140.32 Z" />
<path fill="#e7e8ea" opacity="1.00" d=" M 538.22 141.15 C 540.95 139.93 544.82 140.70 546.26 143.51 C 546.76 145.06 546.81 146.71 547.05 148.32 C 543.65 148.36 540.26 148.33 536.87 148.51 C 538.03 149.87 538.80 152.31 541.00 152.21 C 542.52 152.38 543.55 151.02 544.77 150.34 C 545.24 150.42 546.19 150.58 546.67 150.66 C 546.61 151.11 546.50 152.00 546.44 152.44 C 544.28 153.82 541.74 155.00 539.14 154.17 C 533.50 152.65 533.13 143.59 538.22 141.15 M 537.03 146.15 C 539.61 146.18 542.19 146.19 544.78 146.14 C 543.66 144.91 543.01 142.82 541.07 142.74 C 538.95 142.63 538.12 144.77 537.03 146.15 Z" />
<path fill="#e7e8ea" opacity="1.00" d=" M 600.52 141.62 C 602.76 140.17 605.95 140.24 608.07 141.91 C 610.01 143.41 609.88 146.14 610.55 148.28 C 607.04 148.38 603.54 148.33 600.04 148.49 C 601.20 150.83 603.02 152.54 605.83 152.34 C 606.24 151.81 607.07 150.73 607.49 150.20 C 608.18 150.37 609.57 150.72 610.26 150.89 C 608.78 153.43 605.99 154.99 603.02 154.32 C 597.14 153.55 596.20 144.83 600.52 141.62 M 600.10 146.14 C 602.68 146.18 605.27 146.18 607.86 146.15 C 606.75 144.91 606.11 142.43 603.99 142.81 C 602.02 142.69 601.28 144.99 600.10 146.14 Z" />
<path fill="#e7e8ea" opacity="1.00" d=" M 610.98 140.40 C 614.20 139.89 615.49 142.77 617.06 144.91 C 618.71 142.85 619.89 139.89 623.14 140.38 C 621.69 142.76 620.15 145.08 618.55 147.35 C 620.07 149.54 621.62 151.73 623.19 153.89 C 622.38 153.91 620.76 153.95 619.95 153.97 C 618.97 152.36 617.99 150.76 617.05 149.14 C 616.11 150.76 615.12 152.36 614.15 153.96 C 613.36 153.96 611.77 153.97 610.97 153.97 C 612.49 151.71 614.01 149.46 615.57 147.23 C 613.96 145.01 612.42 142.73 610.98 140.40 Z" />
<path fill="#e7e8ea" opacity="1.00" d=" M 629.00 154.32 C 622.15 153.46 622.15 141.58 628.98 140.68 C 632.16 139.94 634.84 142.09 636.43 144.62 C 633.39 145.90 631.11 141.37 628.37 143.37 C 624.76 146.23 626.78 153.28 631.90 152.31 C 632.22 151.74 632.85 150.59 633.17 150.02 C 633.96 150.15 635.55 150.42 636.35 150.55 C 634.69 152.95 632.13 155.06 629.00 154.32 Z" />
<path fill="#e7e8ea" opacity="1.00" d=" M 658.26 144.92 C 657.71 141.33 662.26 140.00 665.04 140.79 C 666.95 141.04 667.80 143.01 668.97 144.28 C 666.58 143.89 664.27 143.18 661.94 142.61 C 661.57 143.25 660.84 144.53 660.48 145.17 C 663.25 146.59 669.10 146.41 668.61 150.78 C 667.50 155.77 658.83 155.67 657.61 150.67 C 658.18 150.58 659.32 150.41 659.89 150.32 C 661.27 152.18 663.36 152.31 665.48 151.94 C 665.54 151.31 665.67 150.05 665.73 149.42 C 663.23 148.24 658.55 148.46 658.26 144.92 Z" />
<path fill="#e7e8ea" opacity="1.00" d=" M 675.52 140.36 C 676.22 140.49 677.63 140.77 678.33 140.90 C 680.13 144.14 681.05 147.79 682.05 151.34 C 683.07 147.80 684.05 144.19 685.79 140.93 C 686.50 140.79 687.92 140.49 688.63 140.34 C 687.01 144.75 685.49 149.21 683.64 153.52 C 682.94 153.73 681.54 154.17 680.85 154.39 C 679.01 149.73 677.20 145.07 675.52 140.36 Z" />
<path fill="#e7e8ea" opacity="1.00" d=" M 690.77 142.76 C 692.93 139.79 698.00 139.91 700.22 142.76 C 701.38 144.37 701.39 146.43 701.79 148.30 C 698.33 148.38 694.88 148.34 691.44 148.43 C 692.42 150.63 694.00 152.42 696.62 152.34 C 697.82 151.37 698.96 149.93 700.72 150.34 C 701.63 153.50 697.40 154.64 695.03 154.39 C 689.39 154.30 687.54 146.57 690.77 142.76 M 692.77 143.48 C 692.54 144.39 692.32 145.29 692.11 146.20 C 694.42 146.19 696.73 146.17 699.06 146.15 C 698.39 145.04 697.76 143.92 696.96 142.91 C 695.53 142.80 694.15 143.22 692.77 143.48 Z" />
<path fill="#e7e8ea" opacity="1.00" d=" M 708.23 140.35 C 708.95 140.50 710.39 140.79 711.11 140.94 C 712.73 144.26 713.70 147.86 714.87 151.36 C 715.71 147.78 716.64 144.08 718.58 140.92 C 719.24 140.78 720.57 140.49 721.23 140.34 C 719.72 145.03 717.82 149.57 716.14 154.19 C 715.48 155.68 715.03 157.42 713.69 158.46 C 712.12 159.69 710.01 158.57 708.36 158.26 C 709.32 157.82 711.23 156.93 712.19 156.49 C 712.59 155.71 713.01 154.93 713.44 154.16 C 711.56 149.61 709.83 145.00 708.23 140.35 Z" />
<path fill="#e7e8ea" opacity="1.00" d=" M 740.37 141.43 C 744.38 138.92 750.38 142.00 749.85 146.95 C 750.65 150.98 747.26 155.12 743.03 154.38 C 736.74 154.03 735.39 144.52 740.37 141.43 M 742.10 143.15 C 739.75 144.64 740.06 147.98 740.68 150.31 C 741.78 153.02 746.10 152.74 746.85 149.90 C 748.55 146.88 746.07 141.22 742.10 143.15 Z" />
<path fill="#e7e8ea" opacity="1.00" d=" M 771.22 141.16 C 774.49 139.61 779.08 141.19 779.96 144.90 C 781.92 149.41 778.16 155.54 772.94 154.34 C 766.68 153.60 765.81 143.70 771.22 141.16 M 771.50 143.56 C 770.78 145.80 769.74 148.50 771.32 150.63 C 772.28 152.69 775.67 152.75 776.75 150.76 C 778.24 148.59 777.31 145.82 776.58 143.55 C 775.93 143.34 774.64 142.91 773.99 142.70 C 773.37 142.91 772.12 143.35 771.50 143.56 Z" />
<path fill="#e7e8ea" opacity="1.00" d=" M 782.57 140.32 C 783.27 140.61 784.68 141.20 785.38 141.49 C 787.95 140.51 791.69 139.88 793.11 142.95 C 794.16 146.51 793.40 150.37 793.61 154.04 C 792.89 154.00 791.45 153.91 790.73 153.86 C 790.75 150.33 790.79 146.80 790.56 143.28 C 788.93 143.07 787.13 142.64 785.76 143.82 C 784.99 147.13 785.46 150.57 785.38 153.93 C 784.66 153.95 783.21 153.98 782.49 154.00 C 782.50 149.44 782.43 144.88 782.57 140.32 Z" />
<path fill="#e7e8ea" opacity="1.00" d=" M 798.26 142.21 C 800.30 140.09 803.98 140.13 806.28 141.82 C 808.30 143.32 808.35 146.05 808.79 148.30 C 805.33 148.38 801.88 148.34 798.44 148.43 C 799.42 150.86 801.29 152.44 804.01 152.43 C 804.54 151.77 805.59 150.44 806.11 149.78 C 806.81 150.46 807.54 151.13 808.21 151.86 C 805.44 155.43 798.93 155.38 796.93 151.04 C 795.79 148.21 795.90 144.43 798.26 142.21 M 799.78 143.48 C 799.55 144.39 799.32 145.29 799.11 146.20 C 801.42 146.19 803.74 146.17 806.06 146.15 C 805.38 145.04 804.74 143.91 803.94 142.89 C 802.51 142.82 801.14 143.21 799.78 143.48 Z" />
<path fill="#e7e8ea" opacity="1.00" d=" M 816.24 140.34 C 816.96 140.49 818.39 140.79 819.11 140.94 C 820.73 144.27 821.70 147.86 822.87 151.35 C 823.72 147.78 824.62 144.07 826.59 140.93 C 827.25 140.78 828.57 140.49 829.23 140.34 C 827.31 145.91 825.29 151.46 822.97 156.87 C 821.96 159.62 818.77 159.02 816.55 158.53 C 818.35 157.36 820.29 156.30 821.58 154.51 C 819.65 149.84 817.86 145.12 816.24 140.34 Z" />
<path fill="#e7e8ea" opacity="1.00" d=" M 832.51 141.62 C 834.75 140.17 837.92 140.25 840.04 141.88 C 842.00 143.38 841.87 146.12 842.55 148.28 C 839.12 148.39 835.71 148.36 832.29 148.39 C 832.81 149.48 833.32 150.56 833.86 151.65 C 835.18 151.87 836.51 152.07 837.86 152.25 C 838.28 151.74 839.11 150.71 839.53 150.19 C 840.21 150.37 841.58 150.73 842.26 150.91 C 840.74 153.43 837.95 155.02 834.96 154.31 C 829.13 153.49 828.21 144.82 832.51 141.62 M 832.10 146.14 C 834.68 146.19 837.27 146.18 839.87 146.16 C 838.74 144.79 838.07 142.48 835.89 142.75 C 833.98 142.91 833.23 144.93 832.10 146.14 Z" />
<path fill="#e7e8ea" opacity="1.00" d=" M 844.05 143.37 C 846.76 140.14 853.68 139.01 855.18 143.90 C 855.57 147.28 855.31 150.69 855.35 154.08 C 854.59 153.99 853.06 153.80 852.29 153.71 C 849.84 154.37 846.94 154.94 844.89 153.02 C 843.77 151.18 843.67 147.93 846.10 147.11 C 848.30 146.17 850.73 146.07 853.05 145.52 C 852.51 144.51 851.87 143.59 851.11 142.77 C 849.29 142.48 847.82 143.64 846.44 144.60 C 845.84 144.29 844.65 143.67 844.05 143.37 M 846.08 151.24 C 847.65 151.54 849.30 152.55 850.95 152.00 C 852.47 151.08 852.39 149.18 852.81 147.67 C 850.25 148.22 847.11 148.30 846.08 151.24 Z" />
<path fill="#e7e8ea" opacity="1.00" d=" M 885.20 141.16 C 888.48 139.61 893.09 141.18 893.96 144.91 C 895.92 149.43 892.14 155.55 886.92 154.33 C 880.69 153.57 879.82 143.72 885.20 141.16 M 886.28 143.31 C 883.38 145.47 883.85 151.90 888.01 152.23 C 893.86 152.12 892.07 140.19 886.28 143.31 Z" />
<path fill="#e7e8ea" opacity="1.00" d=" M 915.20 141.16 C 918.48 139.61 923.08 141.18 923.96 144.91 C 925.90 149.38 922.21 155.47 917.03 154.35 C 910.71 153.70 909.78 143.73 915.20 141.16 M 915.35 144.33 C 913.27 147.08 914.79 153.19 919.00 152.06 C 922.63 150.76 921.61 145.97 920.42 143.22 C 918.70 143.13 916.26 142.30 915.35 144.33 Z" />
<path fill="#e7e8ea" opacity="1.00" d=" M 945.52 140.36 C 946.23 140.49 947.63 140.77 948.33 140.90 C 950.12 144.12 951.03 147.75 952.03 151.28 C 953.08 147.77 954.05 144.17 955.80 140.93 C 956.51 140.78 957.93 140.49 958.64 140.35 C 957.05 144.86 955.27 149.30 953.62 153.79 C 952.89 155.52 952.32 157.47 950.80 158.68 C 949.19 158.97 947.57 159.02 945.94 158.85 C 947.42 157.51 949.35 156.66 950.57 155.03 C 949.70 149.92 947.00 145.31 945.52 140.36 Z" />
</g>
<g id="#e7e7e9ff">
<path fill="#e7e7e9" opacity="1.00" d=" M 176.73 136.15 C 178.23 136.19 179.73 136.29 181.23 136.45 C 180.54 137.36 179.96 138.40 179.03 139.11 C 177.31 139.12 177.25 137.33 176.73 136.15 Z" />
<path fill="#e7e7e9" opacity="1.00" d=" M 576.84 136.62 C 578.43 136.36 580.06 136.22 581.68 136.17 C 581.14 137.34 580.55 138.48 579.98 139.62 C 578.88 138.67 577.83 137.67 576.84 136.62 Z" />
<path fill="#e7e7e9" opacity="1.00" d=" M 1000.42 136.62 C 1003.26 135.24 1006.94 136.59 1008.27 139.44 C 1009.85 143.34 1009.97 148.07 1007.87 151.80 C 1005.56 155.75 998.62 155.06 997.33 150.57 C 995.80 146.05 995.65 139.28 1000.42 136.62 M 1001.02 139.03 C 999.01 141.17 999.27 144.35 999.35 147.05 C 999.37 149.16 1000.44 152.08 1002.95 152.09 C 1004.68 152.25 1005.67 150.40 1006.19 149.02 C 1006.98 145.54 1006.43 141.94 1005.12 138.68 C 1003.76 138.72 1002.22 138.19 1001.02 139.03 Z" />
<path fill="#e7e7e9" opacity="1.00" d=" M 520.64 136.38 C 524.38 136.61 528.83 135.37 531.92 138.14 C 533.76 140.09 533.16 142.83 532.57 145.18 C 531.95 145.62 530.70 146.51 530.08 146.95 C 531.37 149.38 532.69 151.80 533.94 154.25 C 529.63 154.85 528.83 150.22 527.11 147.39 C 525.89 147.36 524.67 147.34 523.47 147.31 C 523.50 149.54 523.51 151.77 523.53 153.99 C 522.80 153.98 521.35 153.95 520.62 153.94 C 520.64 148.09 520.63 142.24 520.64 136.38 M 523.51 138.71 C 523.51 140.86 523.51 143.01 523.52 145.16 C 525.94 144.95 530.66 145.77 530.42 142.00 C 530.78 138.06 526.02 138.87 523.51 138.71 Z" />
<path fill="#e7e7e9" opacity="1.00" d=" M 1011.51 151.23 C 1012.53 151.17 1013.56 151.10 1014.61 151.05 C 1014.85 151.63 1015.35 152.80 1015.60 153.39 C 1014.24 153.73 1012.89 154.04 1011.53 154.30 C 1011.53 153.53 1011.52 152.00 1011.51 151.23 Z" />
</g>
<g id="#e2e3e6ff">
<path fill="#e2e3e6" opacity="1.00" d=" M 195.53 136.20 C 196.66 136.14 197.79 136.08 198.92 136.04 C 198.84 136.77 198.67 138.21 198.59 138.94 C 197.59 138.83 196.59 138.71 195.59 138.59 C 195.57 138.00 195.54 136.80 195.53 136.20 Z" />
<path fill="#e2e3e6" opacity="1.00" d=" M 313.18 140.15 C 312.83 136.21 318.03 133.87 320.43 137.18 C 319.12 137.55 317.81 137.91 316.51 138.25 C 316.43 138.85 316.28 140.04 316.21 140.64 C 316.99 140.64 318.55 140.65 319.34 140.65 C 319.36 141.21 319.40 142.32 319.42 142.87 C 318.65 142.91 317.12 143.00 316.36 143.04 C 316.38 146.68 316.37 150.33 316.38 153.98 C 315.65 153.98 314.20 153.99 313.47 154.00 C 313.48 150.40 313.47 146.79 313.50 143.19 C 312.61 142.97 310.85 142.52 309.96 142.29 C 311.03 141.57 312.11 140.87 313.18 140.15 Z" />
<path fill="#e2e3e6" opacity="1.00" d=" M 383.54 136.20 C 384.65 136.13 385.76 136.07 386.88 136.03 C 386.83 136.74 386.72 138.16 386.67 138.88 C 385.64 138.80 384.61 138.71 383.59 138.63 C 383.58 138.02 383.55 136.80 383.54 136.20 Z" />
<path fill="#e2e3e6" opacity="1.00" d=" M 464.52 136.21 C 465.64 136.14 466.76 136.08 467.90 136.03 C 467.83 136.74 467.71 138.17 467.65 138.89 C 466.63 138.80 465.61 138.72 464.60 138.63 C 464.58 138.02 464.54 136.82 464.52 136.21 Z" />
<path fill="#e2e3e6" opacity="1.00" d=" M 670.53 136.20 C 671.65 136.14 672.77 136.08 673.90 136.03 C 673.83 136.75 673.69 138.20 673.61 138.93 C 672.59 138.82 671.58 138.71 670.58 138.60 C 670.57 138.00 670.54 136.80 670.53 136.20 Z" />
<path fill="#e2e3e6" opacity="1.00" d=" M 169.73 137.63 C 170.44 137.64 171.85 137.66 172.56 137.67 C 172.53 138.29 172.49 139.53 172.46 140.15 C 173.73 140.73 174.93 141.43 176.02 142.31 C 175.14 142.53 173.38 142.97 172.50 143.19 C 172.52 145.98 172.53 148.77 172.51 151.56 C 173.50 151.95 175.48 152.73 176.47 153.12 C 174.73 154.32 172.52 154.76 170.70 153.47 C 168.45 150.15 170.54 145.79 169.01 142.18 L 167.91 143.92 C 167.88 142.65 167.86 141.37 167.83 140.10 L 169.42 141.27 C 169.50 140.36 169.65 138.54 169.73 137.63 Z" />
<path fill="#e2e3e6" opacity="1.00" d=" M 350.10 144.29 C 351.93 140.00 359.24 138.94 361.26 143.49 C 361.80 147.01 361.44 150.59 361.51 154.14 C 360.49 153.99 359.48 153.84 358.46 153.69 C 356.44 154.13 354.19 154.92 352.23 153.81 C 350.09 153.00 349.93 150.25 350.59 148.39 C 352.75 145.99 356.35 146.30 359.23 145.49 C 358.50 144.64 358.30 143.09 357.04 142.88 C 354.65 142.95 352.57 144.60 350.10 144.29 M 352.13 149.93 C 353.22 151.43 354.96 153.00 356.94 151.90 C 358.80 151.33 358.44 149.12 358.88 147.64 C 356.55 148.15 354.26 148.83 352.13 149.93 Z" />
<path fill="#e2e3e6" opacity="1.00" d=" M 505.71 153.25 C 506.67 151.50 508.31 150.82 510.25 151.05 C 510.28 151.77 510.33 153.20 510.35 153.91 C 508.76 154.06 507.20 153.80 505.71 153.25 Z" />
</g>
<g id="#e4e5e7ff">
<path fill="#e4e5e7" opacity="1.00" d=" M 126.67 136.47 C 127.40 136.43 128.87 136.36 129.61 136.32 C 129.63 142.28 129.64 148.23 129.60 154.19 C 128.59 153.98 127.57 153.76 126.56 153.54 C 124.79 154.03 122.88 154.87 121.07 154.04 C 116.05 151.83 116.02 143.22 121.03 140.98 C 122.97 140.05 125.02 141.01 126.89 141.63 C 126.79 139.91 126.73 138.19 126.67 136.47 M 122.24 143.11 C 119.79 144.19 120.16 147.46 120.49 149.64 C 120.82 152.18 124.65 153.25 126.02 150.96 C 127.99 148.09 126.89 141.33 122.24 143.11 Z" />
<path fill="#e4e5e7" opacity="1.00" d=" M 148.39 141.41 C 150.68 140.12 153.80 140.36 155.82 142.06 C 157.53 143.66 157.49 146.17 157.88 148.31 C 154.48 148.38 151.07 148.35 147.67 148.45 C 148.68 150.01 149.58 152.70 151.98 152.12 C 154.00 151.47 155.86 150.23 158.10 150.55 C 156.42 153.78 152.54 155.35 149.13 153.95 C 144.29 151.85 144.08 144.18 148.39 141.41 M 147.78 146.14 C 150.26 146.17 152.74 146.17 155.22 146.14 C 154.27 144.61 153.32 142.17 151.02 142.85 C 149.27 142.88 148.80 145.04 147.78 146.14 Z" />
</g>
<g id="#dfe0e3ff">
<path fill="#dfe0e3" opacity="1.00" d=" M 418.48 136.36 C 419.20 136.36 420.65 136.38 421.38 136.39 C 421.38 142.25 421.37 148.12 421.38 153.98 C 420.65 153.99 419.20 154.00 418.47 154.01 C 418.47 148.12 418.46 142.24 418.48 136.36 Z" />
</g>
<g id="#dcdde0ff">
<path fill="#dcdde0" opacity="1.00" d=" M 458.73 136.43 C 459.45 136.40 460.90 136.34 461.62 136.31 C 461.66 142.22 461.64 148.13 461.64 154.04 C 460.91 154.01 459.45 153.96 458.72 153.94 C 458.73 148.10 458.72 142.27 458.73 136.43 Z" />
<path fill="#dcdde0" opacity="1.00" d=" M 638.38 136.31 C 639.10 136.34 640.55 136.40 641.27 136.43 C 641.27 142.27 641.26 148.10 641.28 153.93 C 640.55 153.96 639.09 154.01 638.36 154.04 C 638.36 148.13 638.33 142.22 638.38 136.31 Z" />
<path fill="#dcdde0" opacity="1.00" d=" M 703.73 136.43 C 704.45 136.40 705.90 136.34 706.62 136.31 C 706.66 142.22 706.64 148.13 706.64 154.04 C 705.91 154.01 704.45 153.96 703.72 153.93 C 703.73 148.10 703.72 142.27 703.73 136.43 Z" />
<path fill="#dcdde0" opacity="1.00" d=" M 752.54 140.33 C 753.50 140.66 754.48 141.01 755.46 141.36 C 756.82 141.00 758.19 140.66 759.58 140.34 C 759.66 140.90 759.83 142.01 759.92 142.56 C 758.50 143.18 756.38 142.86 755.59 144.45 C 755.14 147.61 755.44 150.82 755.39 154.00 C 754.66 154.00 753.19 154.00 752.46 154.00 C 752.47 149.44 752.40 144.89 752.54 140.33 Z" />
<path fill="#dcdde0" opacity="1.00" d=" M 896.54 140.33 C 897.26 140.59 898.70 141.11 899.42 141.37 C 900.79 141.01 902.15 140.66 903.56 140.34 C 903.65 140.89 903.83 142.00 903.92 142.56 C 902.50 143.18 900.39 142.86 899.59 144.45 C 899.14 147.61 899.43 150.82 899.39 154.00 C 898.66 154.00 897.19 154.00 896.46 154.00 C 896.47 149.44 896.40 144.88 896.54 140.33 Z" />
</g>
<g id="#d0d2d6ff">
<path fill="#d0d2d6" opacity="1.00" d=" M 249.67 140.34 C 250.89 140.88 251.98 141.60 252.79 142.68 C 253.42 141.94 254.03 141.19 254.64 140.43 C 256.48 140.78 258.71 140.50 260.13 141.98 C 263.21 144.99 263.04 150.91 259.52 153.52 C 257.32 155.02 254.41 154.61 252.52 152.84 C 252.66 154.90 252.67 156.97 252.72 159.04 C 251.97 159.01 250.46 158.96 249.71 158.94 C 249.69 152.74 249.75 146.54 249.67 140.34 M 254.22 143.30 C 251.66 145.62 251.90 151.87 256.02 152.12 C 261.43 151.75 259.96 140.51 254.22 143.30 Z" />
</g>
</svg>
