<?xml version="1.0" encoding="UTF-8" ?>
<!DOCTYPE svg PUBLIC "-//W3C//DTD SVG 1.1//EN" "http://www.w3.org/Graphics/SVG/1.1/DTD/svg11.dtd">
<svg width="1200pt" height="400pt" viewBox="0 0 1200 400" version="1.1" xmlns="http://www.w3.org/2000/svg">
<g id="#0144a0ff">
<path fill="#0144a0" opacity="1.00" d=" M 0.00 0.00 L 1200.00 0.00 L 1200.00 112.00 C 800.00 112.00 400.00 112.00 0.00 112.00 L 0.00 0.00 Z" />
<path fill="#0144a0" opacity="1.00" d=" M 70.10 147.99 C 79.06 148.08 88.02 147.87 96.97 148.07 C 97.19 148.35 97.62 148.90 97.84 149.17 C 112.34 184.13 126.92 219.05 141.47 253.98 C 129.47 253.97 117.46 254.10 105.46 253.91 C 103.98 248.36 102.12 242.92 100.63 237.37 C 89.84 236.74 79.05 236.75 68.26 237.34 C 66.48 242.83 64.98 248.42 63.50 254.00 C 52.97 254.00 42.44 254.00 31.91 254.00 C 32.00 252.21 31.96 250.36 32.77 248.72 C 46.24 215.54 58.53 181.88 70.10 147.99 M 75.85 208.13 C 82.76 208.92 89.65 209.82 96.55 210.65 C 93.17 201.44 89.80 192.22 86.66 182.92 C 83.02 191.30 79.47 199.73 75.85 208.13 Z" />
<path fill="#0144a0" opacity="1.00" d=" M 142.85 148.00 C 154.58 148.02 166.30 147.96 178.03 148.03 C 175.40 174.02 174.74 200.24 176.35 226.31 C 189.36 225.47 202.34 223.63 214.99 220.44 C 211.94 231.42 210.23 242.73 208.64 254.00 C 187.13 254.00 165.63 254.00 144.12 254.00 C 146.47 218.69 144.87 183.29 142.85 148.00 Z" />
<path fill="#0144a0" opacity="1.00" d=" M 218.58 148.00 C 241.42 148.01 264.27 147.98 287.11 148.01 C 288.74 147.78 289.74 149.25 290.84 150.16 C 298.15 157.42 304.83 165.74 308.34 175.55 C 310.42 181.01 308.51 186.95 305.87 191.85 C 300.86 200.82 293.32 207.99 286.03 215.09 C 290.43 229.01 297.42 241.94 305.58 253.99 C 295.30 254.01 285.03 253.99 274.75 254.00 C 267.47 244.33 261.25 233.89 256.20 222.89 C 254.41 222.78 252.64 222.66 250.86 222.55 C 250.79 233.02 250.57 243.49 250.45 253.96 C 240.98 254.05 231.50 253.98 222.02 253.99 C 222.37 230.70 222.91 207.36 221.07 184.11 C 220.64 172.05 219.57 160.03 218.58 148.00 M 248.68 168.52 C 249.15 181.96 250.16 195.38 250.73 208.82 C 258.92 204.96 266.91 199.44 271.18 191.23 C 273.17 187.51 273.55 182.72 270.78 179.27 C 265.51 172.52 256.73 170.08 248.68 168.52 Z" />
<path fill="#0144a0" opacity="1.00" d=" M 357.92 148.05 C 368.76 147.93 379.61 148.03 390.45 148.00 C 390.24 175.38 390.20 202.76 389.95 230.13 C 387.36 239.08 382.12 247.22 375.56 253.80 C 361.26 254.22 346.89 253.97 332.57 253.92 C 330.04 243.56 326.86 233.35 324.61 222.93 C 324.97 222.73 325.68 222.33 326.04 222.13 C 334.60 225.12 343.86 227.54 352.95 225.65 C 356.28 224.98 359.12 222.51 360.23 219.29 C 362.40 212.36 361.14 205.05 360.90 197.95 C 360.18 181.30 358.79 164.70 357.92 148.05 Z" />
<path fill="#0144a0" opacity="1.00" d=" M 395.49 253.92 C 409.60 218.98 422.65 183.62 434.89 147.98 C 443.93 148.01 452.97 148.01 462.02 147.98 C 476.68 183.31 491.64 218.53 505.99 253.98 C 494.11 254.01 482.22 254.01 470.33 253.98 C 468.58 248.48 466.98 242.93 465.29 237.41 C 454.56 236.77 443.80 236.61 433.08 237.45 C 430.97 242.80 429.85 248.50 428.10 253.98 C 417.23 253.98 406.36 254.08 395.49 253.92 M 440.62 208.14 C 447.50 208.90 454.36 209.85 461.24 210.63 C 457.87 201.47 454.63 192.27 451.40 183.07 C 447.64 191.35 444.19 199.78 440.62 208.14 Z" />
<path fill="#0144a0" opacity="1.00" d=" M 505.28 180.79 C 507.94 169.89 510.39 158.94 512.86 148.00 C 541.38 148.00 569.91 148.00 598.43 148.00 C 583.67 172.36 570.23 197.53 558.52 223.50 C 572.50 224.17 586.54 222.88 600.26 220.13 C 597.73 231.42 595.34 242.73 592.74 254.00 C 564.77 254.00 536.79 254.00 508.82 254.00 C 522.10 228.06 535.36 202.10 548.05 175.86 C 533.71 176.61 519.43 178.31 505.28 180.79 Z" />
<path fill="#0144a0" opacity="1.00" d=" M 611.96 147.99 C 640.43 148.04 668.91 147.95 697.38 148.03 C 682.59 172.37 669.24 197.58 657.46 223.50 C 671.47 224.21 685.50 222.79 699.26 220.20 C 696.80 231.42 694.02 242.58 692.01 253.88 C 663.88 254.13 635.75 253.98 607.63 253.95 C 621.30 228.17 634.19 201.97 647.13 175.81 C 632.80 176.70 618.48 178.18 604.35 180.85 C 606.84 169.88 609.26 158.90 611.96 147.99 Z" />
<path fill="#0144a0" opacity="1.00" d=" M 728.02 148.00 C 751.32 147.98 774.63 148.03 797.93 147.98 C 806.12 155.32 813.36 164.11 817.49 174.39 C 819.87 180.02 818.46 186.41 815.58 191.57 C 810.55 200.62 803.02 207.91 795.64 215.04 C 799.95 229.01 806.91 242.07 815.29 254.01 C 804.95 253.99 794.60 254.01 784.26 254.00 C 777.10 244.29 770.76 233.96 765.81 222.94 C 764.02 222.79 762.23 222.64 760.46 222.49 C 760.07 232.99 760.23 243.50 759.82 254.00 C 750.41 254.00 741.00 254.00 731.59 254.00 C 731.84 227.98 732.43 201.88 730.12 175.93 C 729.55 166.61 729.19 157.27 728.02 148.00 M 758.13 168.49 C 759.16 181.94 759.44 195.42 760.23 208.88 C 768.75 204.79 777.24 198.98 781.24 190.10 C 782.97 186.52 782.71 182.07 780.11 178.98 C 774.75 172.43 766.11 170.02 758.13 168.49 Z" />
<path fill="#0144a0" opacity="1.00" d=" M 860.87 148.00 C 869.95 148.00 879.04 148.00 888.13 148.00 C 902.96 183.29 917.43 218.74 932.37 253.99 C 920.34 254.02 908.31 253.99 896.28 254.00 C 894.87 248.41 892.95 242.97 891.46 237.41 C 880.64 236.68 869.81 236.79 859.00 237.33 C 857.34 242.89 855.81 248.48 854.20 254.05 C 843.30 253.93 832.41 254.03 821.51 254.00 C 835.66 219.06 848.81 183.71 860.87 148.00 M 866.68 208.11 C 873.55 208.95 880.42 209.78 887.29 210.68 C 884.08 201.39 880.61 192.20 877.46 182.90 C 873.89 191.31 870.29 199.71 866.68 208.11 Z" />
<path fill="#0144a0" opacity="1.00" d=" M 933.68 148.00 C 956.02 148.13 978.41 147.74 1000.74 148.19 C 1009.92 153.20 1016.10 162.33 1020.23 171.71 C 1025.31 183.72 1029.17 196.97 1026.64 210.08 C 1023.53 227.03 1014.79 243.57 1000.82 253.99 C 978.69 254.01 956.55 253.99 934.41 254.00 C 935.46 218.67 935.65 183.30 933.68 148.00 M 963.22 171.49 C 962.39 191.87 962.22 212.30 963.24 232.67 C 975.11 234.09 984.60 225.11 991.28 216.44 C 994.21 212.05 997.97 207.51 998.30 202.05 C 996.30 194.62 991.50 188.23 986.50 182.51 C 980.65 175.85 972.18 171.47 963.22 171.49 Z" />
<path fill="#0144a0" opacity="1.00" d=" M 1033.97 148.00 C 1045.30 148.00 1056.63 147.99 1067.96 148.00 C 1067.30 160.68 1065.61 173.27 1065.38 185.97 C 1064.40 208.64 1064.51 231.37 1066.18 254.00 C 1055.72 253.96 1045.27 254.08 1034.82 253.94 C 1036.40 218.65 1035.69 183.27 1033.97 148.00 Z" />
<path fill="#0144a0" opacity="1.00" d=" M 1095.42 148.44 C 1096.80 147.70 1098.46 148.10 1099.98 147.97 C 1115.91 148.17 1131.87 147.71 1147.77 148.20 C 1156.35 152.84 1162.58 161.07 1166.11 170.05 C 1167.92 174.25 1168.54 178.82 1169.87 183.17 C 1171.70 188.92 1170.79 195.03 1171.00 200.96 C 1170.81 206.16 1171.53 211.47 1170.30 216.58 C 1168.89 221.10 1168.15 225.82 1166.29 230.19 C 1162.44 240.12 1155.29 249.01 1145.70 253.86 C 1131.82 254.21 1117.90 253.87 1104.01 254.02 C 1101.41 253.93 1098.49 254.52 1096.36 252.69 C 1084.52 245.40 1077.52 232.30 1074.81 218.98 C 1071.51 202.72 1071.82 185.30 1077.90 169.71 C 1081.40 161.09 1087.35 153.24 1095.42 148.44 M 1118.50 170.74 C 1110.51 172.92 1102.90 178.64 1100.59 186.88 C 1097.98 195.27 1098.03 204.84 1102.41 212.64 C 1106.62 220.30 1115.02 225.94 1123.94 225.59 C 1130.03 225.47 1135.60 221.95 1139.20 217.18 C 1144.80 209.86 1146.92 200.23 1145.81 191.16 C 1144.67 183.73 1139.26 177.69 1132.99 173.95 C 1128.68 171.42 1123.55 169.31 1118.50 170.74 Z" />
<path fill="#0144a0" opacity="1.00" d=" M 0.00 290.00 C 400.00 290.00 800.00 290.00 1200.00 290.00 L 1200.00 400.00 L 0.00 400.00 L 0.00 290.00 Z" />
</g>
<g id="#ffffffff">
<path fill="#ffffff" opacity="1.00" d=" M 0.00 112.00 C 400.00 112.00 800.00 112.00 1200.00 112.00 L 1200.00 290.00 C 800.00 290.00 400.00 290.00 0.00 290.00 L 0.00 112.00 M 70.10 147.99 C 58.53 181.88 46.24 215.54 32.77 248.72 C 31.96 250.36 32.00 252.21 31.91 254.00 C 42.44 254.00 52.97 254.00 63.50 254.00 C 64.98 248.42 66.48 242.83 68.26 237.34 C 79.05 236.75 89.84 236.74 100.63 237.37 C 102.12 242.92 103.98 248.36 105.46 253.91 C 117.46 254.10 129.47 253.97 141.47 253.98 C 126.92 219.05 112.34 184.13 97.84 149.17 C 97.62 148.90 97.19 148.35 96.97 148.07 C 88.02 147.87 79.06 148.08 70.10 147.99 M 142.85 148.00 C 144.87 183.29 146.47 218.69 144.12 254.00 C 165.63 254.00 187.13 254.00 208.64 254.00 C 210.23 242.73 211.94 231.42 214.99 220.44 C 202.34 223.63 189.36 225.47 176.35 226.31 C 174.74 200.24 175.40 174.02 178.03 148.03 C 166.30 147.96 154.58 148.02 142.85 148.00 M 218.58 148.00 C 219.57 160.03 220.64 172.05 221.07 184.11 C 222.91 207.36 222.37 230.70 222.02 253.99 C 231.50 253.98 240.98 254.05 250.45 253.96 C 250.57 243.49 250.79 233.02 250.86 222.55 C 252.64 222.66 254.41 222.78 256.20 222.89 C 261.25 233.89 267.47 244.33 274.75 254.00 C 285.03 253.99 295.30 254.01 305.58 253.99 C 297.42 241.94 290.43 229.01 286.03 215.09 C 293.32 207.99 300.86 200.82 305.87 191.85 C 308.51 186.95 310.42 181.01 308.34 175.55 C 304.83 165.74 298.15 157.42 290.84 150.16 C 289.74 149.25 288.74 147.78 287.11 148.01 C 264.27 147.98 241.42 148.01 218.58 148.00 M 357.92 148.05 C 358.79 164.70 360.18 181.30 360.90 197.95 C 361.14 205.05 362.40 212.36 360.23 219.29 C 359.12 222.51 356.28 224.98 352.95 225.65 C 343.86 227.54 334.60 225.12 326.04 222.13 C 325.68 222.33 324.97 222.73 324.61 222.93 C 326.86 233.35 330.04 243.56 332.57 253.92 C 346.89 253.97 361.26 254.22 375.56 253.80 C 382.12 247.22 387.36 239.08 389.95 230.13 C 390.20 202.76 390.24 175.38 390.45 148.00 C 379.61 148.03 368.76 147.93 357.92 148.05 M 395.49 253.92 C 406.36 254.08 417.23 253.98 428.10 253.98 C 429.85 248.50 430.97 242.80 433.08 237.45 C 443.80 236.61 454.56 236.77 465.29 237.41 C 466.98 242.93 468.58 248.48 470.33 253.98 C 482.22 254.01 494.11 254.01 505.99 253.98 C 491.64 218.53 476.68 183.31 462.02 147.98 C 452.97 148.01 443.93 148.01 434.89 147.98 C 422.65 183.62 409.60 218.98 395.49 253.92 M 505.28 180.79 C 519.43 178.31 533.71 176.61 548.05 175.86 C 535.36 202.10 522.10 228.06 508.82 254.00 C 536.79 254.00 564.77 254.00 592.74 254.00 C 595.34 242.73 597.73 231.42 600.26 220.13 C 586.54 222.88 572.50 224.17 558.52 223.50 C 570.23 197.53 583.67 172.36 598.43 148.00 C 569.91 148.00 541.38 148.00 512.86 148.00 C 510.39 158.94 507.94 169.89 505.28 180.79 M 611.96 147.99 C 609.26 158.90 606.84 169.88 604.35 180.85 C 618.48 178.18 632.80 176.70 647.13 175.81 C 634.19 201.97 621.30 228.17 607.63 253.95 C 635.75 253.98 663.88 254.13 692.01 253.88 C 694.02 242.58 696.80 231.42 699.26 220.20 C 685.50 222.79 671.47 224.21 657.46 223.50 C 669.24 197.58 682.59 172.37 697.38 148.03 C 668.91 147.95 640.43 148.04 611.96 147.99 M 728.02 148.00 C 729.19 157.27 729.55 166.61 730.12 175.93 C 732.43 201.88 731.84 227.98 731.59 254.00 C 741.00 254.00 750.41 254.00 759.82 254.00 C 760.23 243.50 760.07 232.99 760.46 222.49 C 762.23 222.64 764.02 222.79 765.81 222.94 C 770.76 233.96 777.10 244.29 784.26 254.00 C 794.60 254.01 804.95 253.99 815.29 254.01 C 806.91 242.07 799.95 229.01 795.64 215.04 C 803.02 207.91 810.55 200.62 815.58 191.57 C 818.46 186.41 819.87 180.02 817.49 174.39 C 813.36 164.11 806.12 155.32 797.93 147.98 C 774.63 148.03 751.32 147.98 728.02 148.00 M 860.87 148.00 C 848.81 183.71 835.66 219.06 821.51 254.00 C 832.41 254.03 843.30 253.93 854.20 254.05 C 855.81 248.48 857.34 242.89 859.00 237.33 C 869.81 236.79 880.64 236.68 891.46 237.41 C 892.95 242.97 894.87 248.41 896.28 254.00 C 908.31 253.99 920.34 254.02 932.37 253.99 C 917.43 218.74 902.96 183.29 888.13 148.00 C 879.04 148.00 869.95 148.00 860.87 148.00 M 933.68 148.00 C 935.65 183.30 935.46 218.67 934.41 254.00 C 956.55 253.99 978.69 254.01 1000.82 253.99 C 1014.79 243.57 1023.53 227.03 1026.64 210.08 C 1029.17 196.97 1025.31 183.72 1020.23 171.71 C 1016.10 162.33 1009.92 153.20 1000.74 148.19 C 978.41 147.74 956.02 148.13 933.68 148.00 M 1033.97 148.00 C 1035.69 183.27 1036.40 218.65 1034.82 253.94 C 1045.27 254.08 1055.72 253.96 1066.18 254.00 C 1064.51 231.37 1064.40 208.64 1065.38 185.97 C 1065.61 173.27 1067.30 160.68 1067.96 148.00 C 1056.63 147.99 1045.30 148.00 1033.97 148.00 M 1095.42 148.44 C 1087.35 153.24 1081.40 161.09 1077.90 169.71 C 1071.82 185.30 1071.51 202.72 1074.81 218.98 C 1077.52 232.30 1084.52 245.40 1096.36 252.69 C 1098.49 254.52 1101.41 253.93 1104.01 254.02 C 1117.90 253.87 1131.82 254.21 1145.70 253.86 C 1155.29 249.01 1162.44 240.12 1166.29 230.19 C 1168.15 225.82 1168.89 221.10 1170.30 216.58 C 1171.53 211.47 1170.81 206.16 1171.00 200.96 C 1170.79 195.03 1171.70 188.92 1169.87 183.17 C 1168.54 178.82 1167.92 174.25 1166.11 170.05 C 1162.58 161.07 1156.35 152.84 1147.77 148.20 C 1131.87 147.71 1115.91 148.17 1099.98 147.97 C 1098.46 148.10 1096.80 147.70 1095.42 148.44 Z" />
<path fill="#ffffff" opacity="1.00" d=" M 248.68 168.52 C 256.73 170.08 265.51 172.52 270.78 179.27 C 273.55 182.72 273.17 187.51 271.18 191.23 C 266.91 199.44 258.92 204.96 250.73 208.82 C 250.16 195.38 249.15 181.96 248.68 168.52 Z" />
<path fill="#ffffff" opacity="1.00" d=" M 758.13 168.49 C 766.11 170.02 774.75 172.43 780.11 178.98 C 782.71 182.07 782.97 186.52 781.24 190.10 C 777.24 198.98 768.75 204.79 760.23 208.88 C 759.44 195.42 759.16 181.94 758.13 168.49 Z" />
<path fill="#ffffff" opacity="1.00" d=" M 1118.50 170.74 C 1123.55 169.31 1128.68 171.42 1132.99 173.95 C 1139.26 177.69 1144.67 183.73 1145.81 191.16 C 1146.92 200.23 1144.80 209.86 1139.20 217.18 C 1135.60 221.95 1130.03 225.47 1123.94 225.59 C 1115.02 225.94 1106.62 220.30 1102.41 212.64 C 1098.03 204.84 1097.98 195.27 1100.59 186.88 C 1102.90 178.64 1110.51 172.92 1118.50 170.74 Z" />
<path fill="#ffffff" opacity="1.00" d=" M 963.22 171.49 C 972.18 171.47 980.65 175.85 986.50 182.51 C 991.50 188.23 996.30 194.62 998.30 202.05 C 997.97 207.51 994.21 212.05 991.28 216.44 C 984.60 225.11 975.11 234.09 963.24 232.67 C 962.22 212.30 962.39 191.87 963.22 171.49 Z" />
<path fill="#ffffff" opacity="1.00" d=" M 75.85 208.13 C 79.47 199.73 83.02 191.30 86.66 182.92 C 89.80 192.22 93.17 201.44 96.55 210.65 C 89.65 209.82 82.76 208.92 75.85 208.13 Z" />
<path fill="#ffffff" opacity="1.00" d=" M 440.62 208.14 C 444.19 199.78 447.64 191.35 451.40 183.07 C 454.63 192.27 457.87 201.47 461.24 210.63 C 454.36 209.85 447.50 208.90 440.62 208.14 Z" />
<path fill="#ffffff" opacity="1.00" d=" M 866.68 208.11 C 870.29 199.71 873.89 191.31 877.46 182.90 C 880.61 192.20 884.08 201.39 887.29 210.68 C 880.42 209.78 873.55 208.95 866.68 208.11 Z" />
</g>
</svg>
